<svg id="9e550c4a-31cc-4d53-a5a0-b912f893c649" data-name="Layer 1" xmlns="http://www.w3.org/2000/svg" width="40" height="40" viewBox="0 0 40 40"><defs><style>.e963aca9-b6c1-4bfc-a4f2-f5cc3a641318 { fill: #012960; } .\37 ad79976-d81c-43db-b04b-600401eafaf3 { fill: #fff; }</style></defs><title>whale-circle</title><g id="cde99819-be44-4125-a4bb-69d078f74700" data-name="scale-down_amount-60_duration-1200_delay-400_easing-backout" style="opacity: 1;" transform="matrix(1,0,0,1,0,0)"><path id="46d7077e-75d9-4103-91fe-a86cd7f48ae6" data-name="circle" class="e963aca9-b6c1-4bfc-a4f2-f5cc3a641318" d="M33.1 20A13.1 13.1 0 1 1 20 6.9 13.1 13.1 0 0 1 33.1 20M20 5a15 15 0 1 0 15 15A15 15 0 0 0 20 5"></path></g><g id="474f2be0-d4af-414c-b633-dfae7d6244bb" data-name="scale-up_amount-40_duration-900_delay-600_easing-backout" style="opacity: 1;" transform="matrix(1,0,0,1,0,0)"><path class="e963aca9-b6c1-4bfc-a4f2-f5cc3a641318" d="M14.8 24.3h8.5c1.1-.2 2.8-.3 3.5-1.5a12.8 12.8 0 0 0 .7-2.2v-.7a3.6 3.6 0 0 1 .2-1.1 2.2 2.2 0 0 0 1.6-.1 2.8 2.8 0 0 0 1-1.4l.2-.3.2-.5v-.4c.1 0 0-.1 0-.2h-.5l-.6.2-1.2-.2a1.7 1.7 0 0 0-1.5.3h.1l-.6-.4a1.9 1.9 0 0 0-1.3.1h-.6l-.5-.2c-.2.1-.2.4-.2.7v.3a2.2 2.2 0 0 0 .2 1.1 1.4 1.4 0 0 0 1 .7h1.1c.1.1 0 .3 0 .4a2.3 2.3 0 0 1-.4 1 2.4 2.4 0 0 1-1.2.7c-1.5.5-2.4-.8-3.3-2l-.5-.7c-1.1-1.5-2.4-1.7-4.2-1.5l-2-.2a9.7 9.7 0 0 0-2.4-.1 2.8 2.8 0 0 0-2.5 3.4v.6a4.2 4.2 0 0 1 .1 1.6c-.2.4-.1.7.1.8v.4c0 .7 1.1 1.1 1.5 1.2a8.2 8.2 0 0 0 3.5.2"></path></g><desc>Created with Snap</desc></svg>
