<svg width="21" height="21" viewBox="0 0 21 21" fill="none" xmlns="http://www.w3.org/2000/svg">
<path d="M17.3775 10.5C17.3775 11.8602 16.9741 13.1899 16.2184 14.3209C15.4627 15.4519 14.3886 16.3334 13.1319 16.854C11.8752 17.3745 10.4924 17.5107 9.15827 17.2453C7.82417 16.98 6.59871 16.325 5.63688 15.3631C4.67504 14.4013 4.02002 13.1758 3.75465 11.8417C3.48928 10.5076 3.62548 9.12479 4.14602 7.86809C4.66656 6.6114 5.54807 5.53728 6.67907 4.78157C7.81007 4.02586 9.13976 3.6225 10.5 3.6225C11.4032 3.6225 12.2975 3.80039 13.1319 4.14602C13.9663 4.49165 14.7245 4.99824 15.3631 5.63687C16.0018 6.27551 16.5084 7.03368 16.854 7.86809C17.1996 8.70251 17.3775 9.59683 17.3775 10.5ZM10.5 2.625C8.94248 2.625 7.41993 3.08686 6.12489 3.95218C4.82985 4.81749 3.82049 6.0474 3.22445 7.48637C2.62841 8.92534 2.47246 10.5087 2.77632 12.0363C3.08018 13.5639 3.8302 14.9671 4.93154 16.0685C6.03288 17.1698 7.43607 17.9198 8.96367 18.2237C10.4913 18.5275 12.0747 18.3716 13.5136 17.7755C14.9526 17.1795 16.1825 16.1702 17.0478 14.8751C17.9131 13.5801 18.375 12.0575 18.375 10.5C18.375 9.46584 18.1713 8.44181 17.7756 7.48637C17.3798 6.53093 16.7997 5.6628 16.0685 4.93153C15.3372 4.20027 14.4691 3.6202 13.5136 3.22445C12.5582 2.82869 11.5342 2.625 10.5 2.625Z" fill="#DEDEDE"/>
<path d="M7.77 12.7574H12.2325C12.81 12.6524 13.7025 12.5999 14.07 11.9699C14.227 11.5968 14.35 11.2102 14.4375 10.8149V10.4474C14.4422 10.2506 14.4776 10.0558 14.5425 9.86993C14.8191 9.9587 15.1191 9.93996 15.3825 9.81743C15.6303 9.6336 15.814 9.37646 15.9075 9.08243L16.0125 8.92493L16.1175 8.66243V8.45243C16.17 8.45243 16.1175 8.39993 16.1175 8.34743H15.855L15.54 8.45243L14.91 8.34743C14.7756 8.31033 14.6343 8.30525 14.4975 8.3326C14.3608 8.35995 14.2323 8.41898 14.1225 8.50493H14.175L13.86 8.29493C13.6334 8.23138 13.3917 8.24998 13.1775 8.34743H12.8625L12.6 8.24243C12.495 8.29493 12.495 8.45243 12.495 8.60993V8.76743C12.4797 8.96576 12.5159 9.16468 12.6 9.34493C12.6541 9.44185 12.7294 9.52526 12.8203 9.58891C12.9113 9.65256 13.0154 9.69479 13.125 9.71243H13.7025C13.755 9.76493 13.7025 9.86993 13.7025 9.92243C13.675 10.1116 13.6031 10.2915 13.4925 10.4474C13.3233 10.6294 13.1041 10.7572 12.8625 10.8149C12.075 11.0774 11.6025 10.3949 11.13 9.76493L10.8675 9.39743C10.29 8.60993 9.6075 8.50493 8.6625 8.60993L7.6125 8.50493C7.1963 8.4353 6.77306 8.41766 6.3525 8.45243C6.14332 8.46989 5.9403 8.53194 5.7571 8.63441C5.5739 8.73689 5.41477 8.87741 5.29042 9.04653C5.16607 9.21564 5.07938 9.40943 5.03619 9.61485C4.99299 9.82027 4.9943 10.0326 5.04 10.2374V10.5524C5.11127 10.8265 5.1291 11.1117 5.0925 11.3924C4.9875 11.6024 5.04 11.7599 5.145 11.8124V12.0224C5.145 12.3899 5.7225 12.5999 5.9325 12.6524C6.53027 12.8195 7.1571 12.8553 7.77 12.7574Z" fill="#DEDEDE"/>
</svg>
