<svg><metadata>Created by FontForge 20090622 at Mon Jun 3 23:35:23 2019 By deploy user Copyright (C) 2016 Hoefler &amp; Co. http://www.typography.com</metadata><defs><font id="OperatorMono-Medium" horiz-adv-x="550"><font-face x-height="498" ascent="800" bbox="-10 -294 663.544 1150" cap-height="620" descent="-200" font-family="Operator Mono Medium" font-stretch="normal" font-weight="350" panose-1="2 0 0 9 0 0 0 0 0 0" underline-position="-52" underline-thickness="89" unicode-range="U+0020-U+E10D" units-per-em="1000"/><glyph d="M5 -200v1000h540v-1000h-540zM82 750l193 -390l193 390h-386zM491 676l-186 -376l186 -376v752zM59 -76l186 376l-186 376v-752zM275 240l-193 -390h386z" glyph-name=".notdef"/><glyph glyph-name=".null" horiz-adv-x="0"/><glyph glyph-name="nonmarkingreturn" horiz-adv-x="333"/><glyph glyph-name="space"/><glyph d="M314 245h-74q0 24 -14 217.5t-14 214.5h142q-1 -21 -20 -215t-20 -217zM341 0h-143l3 131h144z" glyph-name="exclam" unicode="!"/><glyph d="M417 373h-77l-5 301h126l3 -44zM194 373h-77l-5 301h127l2 -44z" glyph-name="quotedbl" unicode="&quot;"/><glyph d="M321 254l12 114h-105l-12 -114h105zM296 0l16 161h-105l-16 -161h-76l16 161h-93l11 93h91l12 114h-93l10 93h92l16 159h76l-16 -159h105l16 159h76l-16 -159h94l-10 -93h-93l-12 -114h95l-10 -93h-94l-16 -161h-76z" glyph-name="numbersign" unicode="#"/><glyph d="M194 455q0 -28 68 -73l21 115q-89 0 -89 -42zM362 171q0 29 -67 74l-22 -122q89 4 89 48zM252 -79l-98 1l22 108q-55 2 -119 9l20 103q80 -14 131 -17l28 155q-36 21 -58.5 36t-49.5 37t-40 45t-13 47q0 55 51.5 94.5t158.5 47.5l19 112l99 -1l-23 -110q64 -4 96 -9 l-13 -103q-68 14 -115 18l-28 -148q37 -22 59 -37.5t49 -38t40 -46t13 -48.5q0 -54 -51.5 -93t-158.5 -49z" glyph-name="dollar" unicode="$"/><glyph d="M40 495q0 63 29.5 101t73.5 38q40 0 65 -35t25 -95q0 -62 -29 -100t-73 -38q-41 0 -66 34.5t-25 94.5zM114 -15l-70 45l393 602l70 -43zM510 125q0 -63 -29 -100.5t-73 -37.5q-40 0 -65 34.5t-25 94.5q0 62 29 100.5t73 38.5q40 0 65 -35t25 -95z" glyph-name="percent" unicode="%"/><glyph d="M527 55l-91 -69l-78 101q-71 -100 -175 -100q-74 0 -113.5 40.5t-39.5 105.5q0 112 133 195q-56 76 -56 129q0 35 14.5 65.5t45.5 56.5t87.5 40.5t133.5 13.5l7 -102q-100 5 -138 -13.5t-38 -58.5q0 -25 23.5 -58.5t93.5 -114.5l29 -34q31 83 45 154l94 -11 q-29 -109 -83 -209zM207 77q55 0 101 72l-104 126q-68 -53 -68 -118q0 -35 18.5 -57.5t52.5 -22.5z" glyph-name="ampersand" unicode="&amp;"/><glyph d="M308 369h-77l-4 305h134l4 -45z" glyph-name="quotesingle" unicode="'"/><glyph d="M399 730l75 -67q-143 -116 -202.5 -210.5t-59.5 -190.5t60 -192t199 -209l-77 -69q-154 132 -223 244t-69 221q0 112 70 226t227 247z" glyph-name="parenleft" unicode="("/><glyph d="M152 -208l-76 68q143 115 202.5 210t59.5 190q0 96 -59.5 192t-199.5 209l77 69q155 -133 224 -244.5t69 -220.5q0 -111 -70.5 -225.5t-226.5 -247.5z" glyph-name="parenright" unicode=")"/><glyph d="M363 244l-94 117l-115 -98l-56 50l82 124l-130 81l29 69l145 -41l35 148l75 -5l9 -152l151 12l17 -71l-142 -56l58 -139z" glyph-name="asterisk" unicode="*"/><glyph d="M493 251h-168v-178h-99v178h-169v93h169v178h99v-178h168v-93z" glyph-name="plus" unicode="+"/><glyph d="M178 -155q43 56 48.5 136.5t-32.5 160.5l143 7q32 -80 1 -169t-101 -152z" glyph-name="comma" unicode=","/><glyph d="M438 345l-8 -95h-312v95h320z" glyph-name="hyphen" unicode="-"/><glyph d="M342 0h-153l7 140h153z" glyph-name="period" unicode="."/><glyph d="M459 741l96 -46l-457 -895l-96 43z" glyph-name="slash" unicode="/"/><glyph d="M268 -13q-108 0 -163.5 82t-55.5 231q0 151 63.5 242t170.5 91t162.5 -82t55.5 -231q0 -151 -63 -242t-170 -91zM155 320q0 -21 1 -30l230 119q-26 134 -111 134q-120 0 -120 -223zM276 77q119 0 119 223v26l-230 -119q25 -130 111 -130z" glyph-name="zero" unicode="0"/><glyph d="M496 0h-416v93h168v372l-152 -4l-2 81l154 16v73l107 9v-547h150z" glyph-name="one" unicode="1"/><glyph d="M483 0h-403l-11 88q156 121 222 192t66 135q0 55 -59 81.5t-210 28.5l9 103q370 4 370 -184q0 -61 -34 -119t-85 -106.5t-146 -122.5h281v-96z" glyph-name="two" unicode="2"/><glyph d="M92 -13l-8 101q160 9 224 31t64 60q0 37 -57.5 67t-182.5 45v50l221 183h-260v96h364l8 -96l-210 -174q224 -42 224 -163q0 -84 -95 -137t-292 -63z" glyph-name="three" unicode="3"/><glyph d="M505 117h-62v-117h-102v117h-268q-3 100 13.5 238.5t49.5 271.5l119 -8q-1 -6 -27 -112.5l-46.5 -194t-21.5 -99.5h181v206l102 11v-217h71z" glyph-name="four" unicode="4"/><glyph d="M477 209q0 -90 -96.5 -149.5t-291.5 -72.5l-6 102q162 14 226 39.5t64 73.5q0 84 -274 111l19 307h340l-8 -97l-239 1l-9 -139q275 -34 275 -176z" glyph-name="five" unicode="5"/><glyph d="M274 -12q-98 0 -155.5 63t-57.5 180q0 268 317 411l46 -93q-115 -46 -172.5 -98.5t-75.5 -120.5q52 37 108.5 45.5t102 -9t75 -61t29.5 -104.5q0 -96 -63.5 -154.5t-153.5 -58.5zM284 76q46 0 75 30t29 84q0 83 -67 105.5t-155 -32.5v-21q0 -83 32.5 -124.5t85.5 -41.5z" glyph-name="six" unicode="6"/><glyph d="M248 -7l-112 12q88 253 247 511l-3 5h-305l8 99h409v-95q-153 -261 -244 -532z" glyph-name="seven" unicode="7"/><glyph d="M264 -13q-88 0 -144.5 42t-56.5 111q0 102 127 170q-118 72 -118 156q0 67 56.5 117t153.5 50q83 0 138.5 -41t55.5 -107q0 -99 -121 -160q63 -36 98 -73.5t35 -90.5q0 -75 -61.5 -124.5t-162.5 -49.5zM179 479q0 -36 29.5 -62.5t88.5 -59.5q75 45 75 107q0 38 -24.5 61 t-72.5 23q-46 0 -71 -20t-25 -49zM276 72q47 0 76 21t29 54q0 16 -8.5 31t-18 26t-31.5 26t-35.5 23l-42.5 24q-76 -46 -76 -114q0 -41 27 -66t80 -25z" glyph-name="eight" unicode="8"/><glyph d="M172 -22l-46 93q116 47 173.5 99.5t75.5 120.5q-52 -37 -109 -45.5t-102 8.5t-75 60.5t-30 104.5q0 96 63.5 154.5t154.5 58.5q97 0 154.5 -63t57.5 -180q0 -268 -317 -411zM162 430q0 -84 67 -105.5t156 33.5v20q0 83 -32.5 124.5t-86.5 41.5q-46 0 -75 -30t-29 -84z" glyph-name="nine" unicode="9"/><glyph d="M355 321h-152l2 140h152zM347 0h-153l5 140h153z" glyph-name="colon" unicode=":"/><glyph d="M357 321h-153l2 140h153zM183 -154q43 55 48.5 135t-32.5 160l145 7q32 -81 0 -168.5t-102 -151.5z" glyph-name="semicolon" unicode=";"/><glyph d="M411 614l60 -79l-291 -234v-11l292 -234l-63 -80l-329 273v93z" glyph-name="less" unicode="&lt;"/><glyph d="M478 458v-94h-406v94h406zM478 238v-94h-406v94h406z" glyph-name="equal" unicode="="/><glyph d="M140 -24l-60 78l293 236v11l-290 232l62 80l328 -271v-93z" glyph-name="greater" unicode="&gt;"/><glyph d="M83 575l11 104q393 -19 393 -162q0 -31 -20 -59.5t-49.5 -52l-59 -47.5t-52 -56t-26.5 -67l-79 2q2 40 20 75.5t42 59t48 43.5t40.5 38.5t16.5 34.5q0 21 -20.5 36.5t-85.5 29t-179 21.5zM303 0h-141l3 130h141z" glyph-name="question" unicode="?"/><glyph d="M453 -151q-116 -15 -199 7t-129.5 77.5t-67 131t-20.5 178.5q0 199 81 320.5t208 121.5q173 0 173 -232q0 -129 6 -378l-91 -10q0 1 -5 44q-40 -50 -91 -50q-50 0 -82.5 51.5t-31.5 135.5q0 116 54 174t144 60q-5 60 -25.5 88t-61.5 28q-78 0 -131.5 -87t-53.5 -252 q0 -91 13.5 -151.5t48.5 -105.5t99 -60.5t161 -4.5zM355 144q25 0 48 23v220q-58 11 -79 -20.5t-21 -102.5q0 -120 52 -120z" glyph-name="at" unicode="@"/><glyph d="M408 -4l-42 176h-184l-41 -172h-114q104 403 169 621h159q81 -274 169 -617zM270 527l-68 -271h144l-68 271h-8z" glyph-name="A" unicode="A"/><glyph d="M503 183q0 -80 -55.5 -127.5t-148.5 -58.5t-215 3v620q194 21 296.5 -11.5t102.5 -133.5q0 -100 -100 -147q120 -34 120 -145zM197 534v-185q97 -3 136.5 20t39.5 78q0 108 -176 87zM197 86q98 -13 145.5 8.5t47.5 83.5q0 59 -46 78t-147 14v-184z" glyph-name="B" unicode="B"/><glyph d="M484 94l-10 -98q-413 -34 -413 305q0 68 21.5 124t68 102t128 73t193.5 29l6 -110q-94 2 -154 -10t-91 -40t-42 -63t-11 -90q0 -127 66 -179t238 -43z" glyph-name="C" unicode="C"/><glyph d="M508 322q0 -186 -106.5 -269.5t-326.5 -52.5v620q235 31 334 -41t99 -257zM392 305q0 129 -46 184t-158 43v-442q111 -16 157.5 35.5t46.5 179.5z" glyph-name="D" unicode="D"/><glyph d="M489 96l-9 -96h-384v620h387v-96h-272v-170h233v-84h-233v-174h278z" glyph-name="E" unicode="E"/><glyph d="M453 255h-236v-255h-115v620h392v-96h-277v-180h236v-89z" glyph-name="F" unicode="F"/><glyph d="M485 8q-215 -47 -325.5 32.5t-110.5 252.5q0 324 404 336l7 -110q-92 4 -152.5 -9t-90.5 -43.5t-40.5 -66t-10.5 -88.5q0 -118 50.5 -175.5t166.5 -55.5q0 27 -2 107.5l-3 121.5h106q0 -222 1 -302z" glyph-name="G" unicode="G"/><glyph d="M364 0v269h-178v-269h-117v620h117v-263h178v263h118v-620h-118z" glyph-name="H" unicode="H"/><glyph d="M333 531v-442h148l-8 -89h-398v89h143v442h-143v89h401v-89h-143z" glyph-name="I" unicode="I"/><glyph d="M116 620h320v-409q0 -123 -79.5 -174t-277.5 -47v100q47 -5 83 -2.5t61.5 3t43 8.5t28 15t16 23t7.5 32t2 41v319h-204v91z" glyph-name="J" unicode="J"/><glyph d="M404 -7l-161 273h-51v-266h-114v620h114v-259h56l144 259h122l-176 -301l190 -312z" glyph-name="K" unicode="K"/><glyph d="M489 0h-385v620h115v-524h280z" glyph-name="L" unicode="L"/><glyph d="M380 620h110v-620h-106l6 414h-4l-81 -291h-63l-82 291h-4l6 -414h-103v620h112q96 -342 103 -369h4z" glyph-name="M" unicode="M"/><glyph d="M383 0l-207 414h-5l4 -414h-106v620h108l199 -409h4l-5 409h106v-620h-98z" glyph-name="N" unicode="N"/><glyph d="M261 -16q-106 0 -163.5 80t-57.5 228q0 165 66.5 254.5t182.5 89.5q106 0 163 -80t58 -228q0 -165 -66.5 -254.5t-182.5 -89.5zM271 541q-112 0 -112 -223q0 -239 120 -239q112 0 112 223q0 239 -120 239z" glyph-name="O" unicode="O"/><glyph d="M201 0h-114v619q210 29 316.5 -22t106.5 -171q0 -107 -82.5 -166t-226.5 -74v-186zM397 404q0 72 -49.5 105t-146.5 22v-249q99 -10 147.5 18.5t48.5 103.5z" glyph-name="P" unicode="P"/><glyph d="M443 -145l-235 78l18 53q-90 13 -138 92t-48 214q0 165 66.5 254.5t182.5 89.5q106 0 163 -80t58 -228q0 -133 -44 -218t-124 -113v-3l134 -46zM271 541q-59 0 -85.5 -54.5t-26.5 -168.5q0 -239 120 -239q59 0 85.5 54.5t26.5 168.5q0 239 -120 239z" glyph-name="Q" unicode="Q"/><glyph d="M406 -9l-114 225l-98 -2v-214h-113v619q403 53 403 -171q0 -101 -101 -174l146 -268zM194 532v-238l109 3q68 46 68 126q0 63 -44 92t-133 17z" glyph-name="R" unicode="R"/><glyph d="M80 96q149 -11 218 9.5t69 62.5q0 28 -30 53.5t-72.5 48l-84.5 46.5t-72 58t-30 74q0 79 92.5 133t271.5 44l6 -103q-99 8 -154.5 1t-76 -21t-20.5 -38q0 -25 30 -50t72.5 -47.5t84.5 -47.5t72 -60.5t30 -76.5q0 -84 -99.5 -140.5t-306.5 -48.5v103z" glyph-name="S" unicode="S"/><glyph d="M334 524v-524h-116v524h-182l8 96h467v-96h-177z" glyph-name="T" unicode="T"/><glyph d="M270 -16q-96 0 -150 58t-54 164v414h115v-409q0 -128 97 -128q48 0 70 26.5t22 85.5v425h115v-405q0 -108 -57.5 -169.5t-157.5 -61.5z" glyph-name="U" unicode="U"/><glyph d="M356 -1h-161q-94 321 -166 617l117 8q73 -321 127 -521h9q53 202 125 517h114q-82 -339 -165 -621z" glyph-name="V" unicode="V"/><glyph d="M353 0l-81 297l-77 -297h-110q-27 223 -46 620h111q2 -53 11 -250t11 -219h4l71 283h61l76 -283h3q2 14 5.5 115.5l7.5 216.5t5 137h107q-19 -383 -47 -620h-112z" glyph-name="W" unicode="W"/><glyph d="M397 -3l-126 232l-120 -229h-122l175 309l-175 308l126 6l126 -234l120 231h123l-176 -310l175 -307z" glyph-name="X" unicode="X"/><glyph d="M334 0h-116v204l-198 414l122 4l137 -309l133 307h118l-196 -414v-206z" glyph-name="Y" unicode="Y"/><glyph d="M486 0h-423v97l298 425l-296 -2l8 100h413v-97l-297 -425l305 2z" glyph-name="Z" unicode="Z"/><glyph d="M129 -179v877h336v-89h-230v-700h235l-10 -88h-331z" glyph-name="bracketleft" unicode="["/><glyph d="M88 736l464 -891l-102 -30l-459 880z" glyph-name="backslash" unicode="\"/><glyph d="M90 -90h226v699h-228v90h334v-878h-338z" glyph-name="bracketright" unicode="]"/><glyph d="M425 147l-154 212l-147 -212l-75 56l214 297l20 3l224 -299z" glyph-name="asciicircum" unicode="^"/><glyph d="M518 -50v-90h-486v90h486z" glyph-name="underscore" unicode="_"/><glyph d="M415 604l-31 -48q-144 61 -255 138l75 90q98 -96 211 -180z" glyph-name="grave" unicode="`"/><glyph d="M253 73q57 0 114 39q-1 11 -3 103q-109 11 -152 -8t-43 -64q0 -33 22.5 -51.5t61.5 -18.5zM381 -3q-3 12 -9 60q-72 -70 -163 -70q-68 0 -109 35t-41 95q0 80 77 128.5t227 42.5q-4 72 -58.5 96.5t-216.5 29.5l11 94q152 -3 232 -28t111.5 -79t31.5 -154q0 -121 9 -245z" glyph-name="a" unicode="a"/><glyph d="M228 -13q-81 0 -150 27v687l111 10v-254q59 54 131 54q80 0 130.5 -65t50.5 -172q0 -130 -80 -208.5t-193 -78.5zM268 83q123 0 123 164q0 84 -31.5 128.5t-84.5 44.5q-43 0 -86 -30v-293q40 -14 79 -14z" glyph-name="b" unicode="b"/><glyph d="M72 241q0 117 91 190t299 74l7 -105q-91 3 -149.5 -5t-88 -29t-39.5 -46t-10 -65q0 -98 65 -137.5t229 -29.5l-11 -92q-91 -8 -160 1t-113 29.5t-71 54.5t-38 72.5t-11 87.5z" glyph-name="c" unicode="c"/><glyph d="M277 78q46 0 85 31q-3 116 -3 294q-41 13 -71 13q-59 0 -94 -43t-35 -123q0 -85 32 -128.5t86 -43.5zM374 -3l-6 50q-62 -60 -137 -60q-81 0 -131.5 63t-50.5 172q0 134 82 211.5t205 77.5q15 0 23 -1v191l111 10v-212q0 -342 7 -496z" glyph-name="d" unicode="d"/><glyph d="M464 -12q-119 -1 -199.5 15t-125.5 50t-63.5 78.5t-18.5 108.5q0 114 72 192.5t171 78.5q104 0 153.5 -76t35.5 -207l-321 -9q9 -75 75.5 -104.5t231.5 -33.5zM280 420q-106 0 -113 -135q6 0 216 7q-5 128 -103 128z" glyph-name="e" unicode="e"/><glyph d="M471 83l-10 -83h-385v83h126v309h-132l10 85h122v1q0 104 70 166t235 70l7 -108q-94 -3 -134.5 -12.5t-53.5 -30t-13 -68.5v-18h168v-85h-168v-309h158z" glyph-name="f" unicode="f"/><glyph d="M122 -175l-10 100q60 5 95.5 9.5t66 12.5t45.5 17.5t25.5 28t13.5 39t4 54.5q-58 -42 -128 -42q-80 0 -131.5 56.5t-51.5 150.5q0 116 78.5 187.5t191.5 71.5q70 0 150 -24q3 -82 3 -351q0 -72 -15.5 -124t-53.5 -93.5t-108.5 -64.5t-174.5 -28zM277 131q41 0 85 21v251 q-45 13 -81 13q-55 0 -87.5 -36t-32.5 -103q0 -71 32.5 -108.5t83.5 -37.5z" glyph-name="g" unicode="g"/><glyph d="M286 416q-50 0 -98 -30v-386h-111v701l111 10v-258q69 58 150 58q143 0 143 -172v-339h-111v300q0 63 -21.5 89.5t-62.5 26.5z" glyph-name="h" unicode="h"/><glyph d="M350 573h-115l7 140h117zM517 0h-449v84h173v327l-175 8l9 79h278v-414h173z" glyph-name="i" unicode="i"/><glyph d="M391 573h-116l5 140h116zM396 62q0 -116 -78.5 -174.5t-265.5 -62.5l4 104q106 3 152 12.5t61 29.5t15 67v371l-204 10l9 79h307v-436z" glyph-name="j" unicode="j"/><glyph d="M406 -7l-148 222l-59 -2v-213h-111v701l111 10v-418l59 1q66 84 139 207l114 -9q-83 -130 -159 -229l173 -256z" glyph-name="k" unicode="k"/><glyph d="M480 0h-411v84h154v528l-149 8l10 79h251v-615h154z" glyph-name="l" unicode="l"/><glyph d="M203 416q-28 0 -56 -26q3 -139 3 -390h-103q0 381 -4 494l95 6l4 -43q49 54 103 54q56 0 72 -54q49 54 106 54q85 0 85 -114v-397h-103v358q0 32 -9 45t-29 13q-26 0 -49 -23v-393h-79v359q0 31 -8.5 44t-27.5 13z" glyph-name="m" unicode="m"/><glyph d="M286 416q-50 0 -101 -33q4 -186 4 -383h-112q0 343 -8 494l103 6l6 -57q76 68 160 68q143 0 143 -172v-339h-111v300q0 116 -84 116z" glyph-name="n" unicode="n"/><glyph d="M259 -15q-94 0 -152.5 67t-58.5 185q0 119 71 197.5t172 78.5q96 0 153.5 -67t57.5 -186q0 -122 -70.5 -198.5t-172.5 -76.5zM279 75q52 0 81.5 42t29.5 123q0 88 -31.5 135t-86.5 47q-52 0 -81.5 -42t-29.5 -122q0 -89 31.5 -136t86.5 -47z" glyph-name="o" unicode="o"/><glyph d="M256 83q60 0 97.5 42.5t37.5 121.5q0 84 -32 128.5t-84 44.5q-45 0 -88 -32q4 -273 4 -293q33 -12 65 -12zM191 -164l-111 -10v171q0 378 -6 497l102 6l5 -51q64 62 139 62q79 0 130 -65t51 -172q0 -132 -81.5 -209.5t-202.5 -77.5q-17 0 -26 1v-152z" glyph-name="p" unicode="p"/><glyph d="M361 -173v213q-59 -54 -130 -54q-81 0 -131.5 64.5t-50.5 171.5q0 131 81.5 210t196.5 79q76 0 145 -27v-648zM276 78q43 0 85 30v293q-40 14 -76 14q-57 0 -91.5 -42.5t-34.5 -123.5q0 -84 31.5 -127.5t85.5 -43.5z" glyph-name="q" unicode="q"/><glyph d="M439 0h-373v84h121q-5 307 -5 327l-118 8l9 79h206q4 -18 9 -86q76 88 210 105l5 -118q-122 -7 -211 -50q1 -33 1.5 -73.5t1.5 -97.5t2 -94h151z" glyph-name="r" unicode="r"/><glyph d="M443 503l4 -96q-242 21 -242 -41q0 -18 27.5 -36t66.5 -35t78.5 -37t67 -49t27.5 -64q0 -73 -89.5 -116t-289.5 -34l4 95q259 -17 259 49q0 19 -27.5 37t-66.5 33.5t-78 34t-66.5 46.5t-27.5 63q0 73 86 118t267 32z" glyph-name="s" unicode="s"/><glyph d="M463 -8q-166 -3 -231.5 37t-65.5 137v247h-102l10 85h92v134l110 10v-144h188v-85h-188v-230q0 -57 41.5 -77t157.5 -22z" glyph-name="t" unicode="t"/><glyph d="M378 -2l-6 56q-77 -67 -159 -67q-142 0 -142 172v335l111 7v-303q0 -63 21 -89.5t62 -26.5q51 0 100 34q-3 138 -3 382h111q0 -343 8 -495z" glyph-name="u" unicode="u"/><glyph d="M281 108q57 162 125 390h112q-65 -210 -176 -502h-135q-97 257 -173 498l112 8q72 -237 128 -394h7z" glyph-name="v" unicode="v"/><glyph d="M353 0l-81 247l-78 -247h-97q-34 204 -48 498h107q3 -97 15 -366h4l37.5 117.5t32.5 99.5h64l73 -219h3q10 264 13 368h104q-14 -260 -49 -498h-100z" glyph-name="w" unicode="w"/><glyph d="M392 -2l-122 186l-120 -184h-118l171 249l-171 246l124 6l125 -188l119 185h118l-170 -249l170 -246z" glyph-name="x" unicode="x"/><glyph d="M71 -177l-9 100q92 13 124.5 29.5t53.5 65.5l-19 7q-56 125 -188 469l113 8q121 -324 140 -370h10q13 39 38.5 126l46.5 156.5t27 83.5h107q-77 -240 -140 -411q-54 -151 -112 -201.5t-192 -62.5z" glyph-name="y" unicode="y"/><glyph d="M482 0h-414v94l285 309l-285 -3l9 98h403v-93l-284 -310l294 4z" glyph-name="z" unicode="z"/><glyph d="M447 -213q-176 57 -242.5 98.5t-66.5 98.5q0 34 23 66.5t45.5 58t22.5 42.5q0 58 -145 70l3 78q83 9 116 22t33 34q0 13 -15.5 31.5t-34 35t-34.5 41.5t-16 51q0 120 315 219l35 -90q-128 -35 -185.5 -63.5t-57.5 -57.5q0 -21 46 -71t46 -79q0 -30 -27.5 -58t-85.5 -46 q58 -16 85.5 -42.5t27.5 -58.5q0 -27 -21.5 -55l-43 -54t-21.5 -48q0 -36 55 -66t180 -68z" glyph-name="braceleft" unicode="{"/><glyph d="M223 709l105 9v-901h-105v892z" glyph-name="bar" unicode="|"/><glyph d="M101 -212l-35 91q127 35 184.5 63t57.5 57q0 22 -45.5 71.5t-45.5 79.5t27.5 58t86.5 46q-114 30 -114 100q0 27 21.5 55l43 54t21.5 48q0 36 -55 67t-180 68l37 88q176 -56 242.5 -97.5t66.5 -98.5q0 -34 -23 -66.5t-45.5 -58t-22.5 -43.5q0 -57 145 -69l-4 -79 q-82 -8 -115 -21.5t-33 -34.5q0 -13 15.5 -31.5t34 -34.5t34 -41t15.5 -51q2 -119 -314 -220z" glyph-name="braceright" unicode="}"/><glyph d="M372 189q-27 0 -58 20.5t-54 44.5t-47.5 44.5t-38.5 20.5q-33 0 -73 -123l-71 27q59 198 151 198q27 0 57.5 -20.5t53 -44.5t46.5 -44.5t38 -20.5q17 0 34 30.5t39 92.5l71 -27q-30 -99 -65 -148.5t-83 -49.5z" glyph-name="asciitilde" unicode="~"/><glyph d="M372 189q-27 0 -58 20.5t-54 44.5t-47.5 44.5t-38.5 20.5q-33 0 -73 -123l-71 27q59 198 151 198q27 0 57.5 -20.5t53 -44.5t46.5 -44.5t38 -20.5q17 0 34 30.5t39 92.5l71 -27q-30 -99 -65 -148.5t-83 -49.5z" glyph-name="asciitilde" unicode="∼"/><glyph glyph-name="uni00A0"/><glyph d="M209 621h143l-2 -131h-144zM236 376h74q0 -23 14.5 -217t14.5 -215h-143q1 21 20 215t20 217z" glyph-name="exclamdown" unicode="¡"/><glyph d="M174 276q0 -83 93 -119l29 230q-122 -19 -122 -111zM449 31q-69 3 -115 10l-14 -125h-97l21 145q-175 55 -175 203q0 80 52 138.5t175 79.5l15 138h96l-18 -129q49 2 94 -1l-13 -103q-46 5 -99 5l-32 -255q58 -10 122 -13z" glyph-name="cent" unicode="¢"/><glyph d="M478 94v-94h-419v91h66l17 174h-78l8 82h78q9 78 26.5 127t54 85t96 53.5t152.5 22.5l6 -111q-50 -1 -80 -3t-56 -10t-39.5 -18.5t-24.5 -32t-16 -46.5t-10 -67h164l-8 -82h-165l-20 -173z" glyph-name="sterling" unicode="£"/><glyph d="M489 122h-162l1 -122h-109l1 122h-164l1 80h163v30l-22 45h-141v79h102l-130 262l118 4l131 -293l126 291h112l-129 -264h103v-79h-141l-22 -46v-29h163z" glyph-name="yen" unicode="¥"/><glyph d="M152 270q0 -11 8 -20.5t27.5 -19.5t34 -16t47 -18l46.5 -17q83 31 83 69q0 11 -8 20.5t-27 19t-34.5 16t-46.5 17.5t-46 17q-84 -31 -84 -68zM456 53q0 -69 -91 -120.5t-279 -43.5l4 94q60 -4 103.5 -1t72 8.5t45.5 15t24 19t7 18.5q0 16 -30 32t-72 31t-84.5 32.5 t-72.5 45t-30 60.5q0 74 115 125q-74 41 -74 95q0 31 19.5 60t60 55t113 40t167.5 10l5 -95q-60 4 -103.5 1t-72 -8.5t-45.5 -15t-23.5 -18.5t-6.5 -19q0 -17 30 -32.5t72 -30.5t84.5 -32t72.5 -44t30 -60q0 -75 -114 -127q73 -40 73 -95z" glyph-name="section" unicode="§"/><glyph d="M443 573h-112l2 140h113zM221 573h-113l2 140h114z" glyph-name="dieresis" unicode="¨"/><glyph d="M513 314q0 -142 -66 -224.5t-168 -82.5q-108 0 -175 78.5t-67 220.5q0 137 71 222t177 85q101 0 164.5 -81t63.5 -218zM100 310q0 -119 50.5 -182t131.5 -63q78 0 123 62.5t45 182.5q0 115 -45.5 180t-121.5 65q-81 0 -132 -65t-51 -180zM355 220l-7 -68 q-174 -12 -174 158q0 69 40.5 113t132.5 50l5 -76q-62 0 -82 -19t-20 -61q0 -54 22.5 -76t82.5 -21z" glyph-name="copyright" unicode="©"/><glyph d="M259 313q39 0 82 26q-2 40 -2 71q-79 8 -109.5 -5t-30.5 -45q0 -47 60 -47zM352 252q0 4 -6 36q-50 -43 -116 -43q-54 0 -88.5 26t-34.5 70q0 59 59 95.5t172 33.5q-6 44 -47 59t-158 18l8 79q169 -2 228.5 -42t59.5 -145q0 -64 7 -183zM103 181h343v-74h-343v74z" glyph-name="ordfeminine" unicode="ª"/><glyph d="M199 -19l-167 213l5 109l166 214l79 -65l-166 -199l163 -208zM443 -19l-167 213l5 109l167 214l79 -65l-168 -201l164 -206z" glyph-name="guillemotleft" unicode="«"/><glyph d="M520 440q0 -111 -70.5 -182t-176.5 -71q-111 0 -177 65t-66 175q0 112 68.5 181.5t178.5 71.5q106 2 174.5 -64t68.5 -176zM462 435q0 90 -51 140.5t-136 50.5q-84 0 -135.5 -52t-51.5 -142t51 -140.5t135 -50.5t136 51.5t52 142.5zM326 318l-50 81h-27v-78h-61v224 q99 12 143.5 -8t44.5 -55q0 -36 -45 -69l61 -88z" glyph-name="registered" unicode="®"/><glyph d="M448 691v-95h-346v95h346z" glyph-name="macron" unicode="¯"/><glyph d="M461 495q0 -86 -57 -140t-136 -54q-78 0 -128.5 50.5t-50.5 135.5q0 86 57 140.5t136 54.5q78 0 128.5 -51t50.5 -136zM372 493q0 45 -27.5 75.5t-69.5 30.5t-69 -30t-28 -78q0 -47 27 -77.5t70 -30.5q42 0 69 30t28 80z" glyph-name="degree" unicode="°"/><glyph d="M485 49h-420v93h161v153h-162v93h162v170h99v-170h161v-93h-161v-153h160v-93z" glyph-name="plusminus" unicode="±"/><glyph d="M431 325h-305l-9 69q114 70 163.5 112t49.5 79q0 32 -43 47.5t-155 19.5l6 77q281 1 281 -120q0 -51 -44.5 -99.5t-138.5 -109.5h195v-75z" glyph-name="two.sup" unicode="²"/><glyph d="M136 314l-6 78q216 5 216 48q0 41 -177 58v44l148 102v3l-180 -2v75h277l7 -69l-154 -106q164 -26 164 -104q0 -55 -71 -89.5t-224 -37.5z" glyph-name="three.sup" unicode="³"/><glyph d="M144 608q44 29 105 81.5t100 95.5l82 -84q-47 -38 -123.5 -79t-135.5 -63z" glyph-name="acute" unicode="´"/><glyph d="M179 -164l-108 -10v668l111 7v-317q0 -56 21 -79.5t61 -23.5q52 0 101 34q-3 138 -3 383h111q0 -343 8 -495l-101 -5l-6 57q-61 -67 -133 -67q-41 0 -65 17z" glyph-name="mu" unicode="µ"/><glyph d="M389 179v349q-42 3 -75 0v-341q37 -8 75 -8zM144 359q0 -101 101 -150v303q-101 -39 -101 -153zM316 -106l-90 -10v230q-89 28 -136.5 88t-47.5 141q0 133 113.5 211t325.5 77v-714l-92 -10v183q-35 0 -73 5v-201z" glyph-name="paragraph" unicode="¶"/><glyph d="M351 232h-153l2 141h153z" glyph-name="periodcentered" unicode="·"/><glyph d="M221 -21l24 53q165 -65 165 -142q0 -42 -52 -72t-151 -40l-7 85q110 14 110 41q0 29 -89 75z" glyph-name="cedilla" unicode="¸"/><glyph d="M436 325h-306v73h119v196l-111 -3l-2 65l113 13v59l86 7v-337h108z" glyph-name="one.sup" unicode="¹"/><glyph d="M91 428q0 87 57.5 143.5t138.5 56.5q76 0 123.5 -49t47.5 -134q0 -88 -57 -144t-140 -56q-77 0 -123.5 48.5t-46.5 134.5zM277 318q90 0 90 112q0 124 -95 124q-90 0 -90 -111q0 -125 95 -125zM447 107h-344v74h344v-74z" glyph-name="ordmasculine" unicode="º"/><glyph d="M347 -19l-79 66l168 200l-164 207l80 63l167 -212l-5 -110zM103 -19l-79 66l167 200l-164 207l80 63l167 -212l-5 -110z" glyph-name="guillemotright" unicode="»"/><glyph d="M436 425h-306v73h119v196l-111 -3l-2 65l113 13v59l86 7v-337h108zM60 269v72h430v-72h-430zM448 -136l-47 1l1 -75h-83l1 75l-198 -1q-7 140 45 327l95 -6q-65 -242 -66 -249l125 -1l-2 121l83 7l-2 -128l54 1z" glyph-name="onequarter" unicode="¼"/><glyph d="M436 425h-306v73h119v196l-111 -3l-2 65l113 13v59l86 7v-337h108zM60 269v72h430v-72h-430zM431 -210h-305l-9 69q114 70 163.5 112t49.5 79q0 32 -43 47.5t-155 19.5l6 77q281 1 281 -120q0 -51 -44.5 -99.5t-138.5 -109.5h195v-75z" glyph-name="onehalf" unicode="½"/><glyph d="M136 414l-6 78q216 5 216 48q0 41 -177 58v44l148 102v3l-180 -2v75h277l7 -69l-154 -106q164 -26 164 -104q0 -55 -71 -89.5t-224 -37.5zM60 269v72h430v-72h-430zM448 -136l-47 1l1 -75h-83l1 75l-198 -1q-7 140 45 327l95 -6q-65 -242 -66 -249l125 -1l-2 121l83 7 l-2 -128l54 1z" glyph-name="threequarters" unicode="¾"/><glyph d="M248 620h140l-4 -130h-140zM468 45l-12 -104q-393 19 -393 162q0 31 20 59.5t49.5 52l59 47.5t52.5 56t27 67l79 -2q-2 -40 -20 -75.5t-42 -59t-48 -43.5t-40.5 -38.5t-16.5 -34.5q0 -21 20.5 -36.5t85.5 -29t179 -21.5z" glyph-name="questiondown" unicode="¿"/><glyph d="M386 726l-31 -48q-144 61 -255 138l75 90q98 -96 211 -180zM408 -4l-42 176h-184l-41 -172h-114q104 403 169 621h159q81 -274 169 -617zM270 527l-68 -271h144l-68 271h-8z" glyph-name="Agrave" unicode="À"/><glyph d="M155 730q44 29 105 81.5t100 95.5l82 -84q-47 -38 -123.5 -79t-135.5 -63zM408 -4l-42 176h-184l-41 -172h-114q104 403 169 621h159q81 -274 169 -617zM270 527l-68 -271h144l-68 271h-8z" glyph-name="Aacute" unicode="Á"/><glyph d="M392 683l-127 102l-124 -101l-54 51l182 153h7l184 -140zM408 -4l-42 176h-184l-41 -172h-114q104 403 169 621h159q81 -274 169 -617zM270 527l-68 -271h144l-68 271h-8z" glyph-name="Acircumflex" unicode="Â"/><glyph d="M350 690q-27 0 -56.5 21.5t-54 43t-39.5 21.5q-29 0 -69 -78l-57 27q27 64 63.5 102.5t75.5 38.5q27 0 56.5 -22t53.5 -43.5t39 -21.5q30 0 69 79l58 -27q-28 -65 -64 -103t-75 -38zM408 -4l-42 176h-184l-41 -172h-114q104 403 169 621h159q81 -274 169 -617zM270 527 l-68 -271h144l-68 271h-8z" glyph-name="Atilde" unicode="Ã"/><glyph d="M441 695h-112l2 140h113zM219 695h-113l2 140h114zM408 -4l-42 176h-184l-41 -172h-114q104 403 169 621h159q81 -274 169 -617zM270 527l-68 -271h144l-68 271h-8z" glyph-name="Adieresis" unicode="Ä"/><glyph d="M273 890q58 0 96 -31t38 -75q0 -49 -37 -80t-97 -31q-59 0 -96.5 30.5t-37.5 76.5q0 47 37 78.5t97 31.5zM408 -4l-42 176h-184l-41 -172h-114q104 403 169 621h159q81 -274 169 -617zM270 527l-68 -271h144l-68 271h-8z" glyph-name="Aring" unicode="Å"/><glyph d="M253 524l-77 -275h82v275h-5zM258 0v165h-106l-46 -165h-108q25 92 56 195l71 231l60 194h330v-96h-162v-170h133v-84h-133v-174h168l-8 -96h-255z" glyph-name="AE" unicode="Æ"/><glyph d="M405 -114q0 -42 -52 -72t-151 -40l-7 85q110 14 110 41q0 29 -89 75l19 43q-174 62 -174 283q0 68 21.5 124t68 102t128 73t193.5 29l6 -110q-94 2 -154 -10t-91 -40t-42 -63t-11 -90q0 -127 66 -179t238 -43l-10 -98q-94 -8 -174 5q105 -54 105 -115z" glyph-name="Ccedilla" unicode="Ç"/><glyph d="M401 726l-31 -48q-144 61 -255 138l75 90q98 -96 211 -180zM489 96l-9 -96h-384v620h387v-96h-272v-170h233v-84h-233v-174h278z" glyph-name="Egrave" unicode="È"/><glyph d="M171 730q44 29 105 81.5t100 95.5l82 -84q-47 -38 -123.5 -79t-135.5 -63zM489 96l-9 -96h-384v620h387v-96h-272v-170h233v-84h-233v-174h278z" glyph-name="Eacute" unicode="É"/><glyph d="M407 683l-127 102l-124 -101l-54 51l182 153h7l184 -140zM489 96l-9 -96h-384v620h387v-96h-272v-170h233v-84h-233v-174h278z" glyph-name="Ecircumflex" unicode="Ê"/><glyph d="M457 695h-112l2 140h113zM235 695h-113l2 140h114zM489 96l-9 -96h-384v620h387v-96h-272v-170h233v-84h-233v-174h278z" glyph-name="Edieresis" unicode="Ë"/><glyph d="M391 726l-31 -48q-144 61 -255 138l75 90q98 -96 211 -180zM333 531v-442h148l-8 -89h-398v89h143v442h-143v89h401v-89h-143z" glyph-name="Igrave" unicode="Ì"/><glyph d="M160 730q44 29 105 81.5t100 95.5l82 -84q-47 -38 -123.5 -79t-135.5 -63zM333 531v-442h148l-8 -89h-398v89h143v442h-143v89h401v-89h-143z" glyph-name="Iacute" unicode="Í"/><glyph d="M397 683l-127 102l-124 -101l-54 51l182 153h7l184 -140zM333 531v-442h148l-8 -89h-398v89h143v442h-143v89h401v-89h-143z" glyph-name="Icircumflex" unicode="Î"/><glyph d="M446 695h-112l2 140h113zM224 695h-113l2 140h114zM333 531v-442h148l-8 -89h-398v89h143v442h-143v89h401v-89h-143z" glyph-name="Idieresis" unicode="Ï"/><glyph d="M508 322q0 -186 -106.5 -269.5t-326.5 -52.5v274h-62v78h62v268q235 31 334 -41t99 -257zM188 90q111 -16 157.5 35.5t46.5 179.5q0 129 -46 184t-158 43v-180h110l-5 -78h-105v-184z" glyph-name="Eth" unicode="Ð"/><glyph d="M353 690q-27 0 -56.5 21.5t-54 43t-39.5 21.5q-29 0 -69 -78l-57 27q27 64 63.5 102.5t75.5 38.5q27 0 56.5 -22t53.5 -43.5t39 -21.5q29 0 69 79l58 -27q-28 -65 -64 -103t-75 -38zM383 0l-207 414h-5l4 -414h-106v620h108l199 -409h4l-5 409h106v-620h-98z" glyph-name="Ntilde" unicode="Ñ"/><glyph d="M391 733l-31 -48q-144 61 -255 138l75 90q98 -96 211 -180zM261 -16q-106 0 -163.5 80t-57.5 228q0 165 66.5 254.5t182.5 89.5q106 0 163 -80t58 -228q0 -165 -66.5 -254.5t-182.5 -89.5zM271 541q-112 0 -112 -223q0 -239 120 -239q112 0 112 223q0 239 -120 239z" glyph-name="Ograve" unicode="Ò"/><glyph d="M161 737q44 29 105 81.5t100 95.5l82 -84q-47 -38 -123.5 -79t-135.5 -63zM261 -16q-106 0 -163.5 80t-57.5 228q0 165 66.5 254.5t182.5 89.5q106 0 163 -80t58 -228q0 -165 -66.5 -254.5t-182.5 -89.5zM271 541q-112 0 -112 -223q0 -239 120 -239q112 0 112 223 q0 239 -120 239z" glyph-name="Oacute" unicode="Ó"/><glyph d="M397 690l-127 102l-124 -101l-54 51l182 153h7l184 -140zM261 -16q-106 0 -163.5 80t-57.5 228q0 165 66.5 254.5t182.5 89.5q106 0 163 -80t58 -228q0 -165 -66.5 -254.5t-182.5 -89.5zM271 541q-112 0 -112 -223q0 -239 120 -239q112 0 112 223q0 239 -120 239z" glyph-name="Ocircumflex" unicode="Ô"/><glyph d="M356 697q-27 0 -56.5 21.5t-54 43t-39.5 21.5q-29 0 -69 -78l-57 27q27 64 63.5 102.5t75.5 38.5q22 0 45 -13.5t39.5 -30t34.5 -30t30 -13.5q30 0 69 79l58 -27q-28 -65 -64 -103t-75 -38zM261 -16q-106 0 -163.5 80t-57.5 228q0 165 66.5 254.5t182.5 89.5 q106 0 163 -80t58 -228q0 -165 -66.5 -254.5t-182.5 -89.5zM271 541q-112 0 -112 -223q0 -239 120 -239q112 0 112 223q0 239 -120 239z" glyph-name="Otilde" unicode="Õ"/><glyph d="M447 702h-112l2 140h113zM225 702h-113l2 140h114zM261 -16q-106 0 -163.5 80t-57.5 228q0 165 66.5 254.5t182.5 89.5q106 0 163 -80t58 -228q0 -165 -66.5 -254.5t-182.5 -89.5zM271 541q-112 0 -112 -223q0 -239 120 -239q112 0 112 223q0 239 -120 239z" glyph-name="Odieresis" unicode="Ö"/><glyph d="M416 84l-142 144l-138 -140l-68 67l139 141l-143 145l71 69l141 -144l139 141l67 -67l-139 -141l143 -146z" glyph-name="multiply" unicode="×"/><glyph d="M157 318q0 -83 15 -137l173 326q-29 35 -74 35q-114 0 -114 -224zM279 78q114 0 114 224q0 84 -15 138l-174 -326q28 -36 75 -36zM261 -16q-59 0 -102 24l-27 -51l-71 36l38 69q-59 79 -59 230q0 165 66.5 254.5t182.5 89.5q57 0 104 -25l26 52l71 -36l-38 -71 q58 -81 58 -228q0 -165 -66.5 -254.5t-182.5 -89.5z" glyph-name="Oslash" unicode="Ø"/><glyph d="M388 726l-31 -48q-144 61 -255 138l75 90q98 -96 211 -180zM270 -16q-96 0 -150 58t-54 164v414h115v-409q0 -128 97 -128q48 0 70 26.5t22 85.5v425h115v-405q0 -108 -57.5 -169.5t-157.5 -61.5z" glyph-name="Ugrave" unicode="Ù"/><glyph d="M157 730q44 29 105 81.5t100 95.5l82 -84q-47 -38 -123.5 -79t-135.5 -63zM270 -16q-96 0 -150 58t-54 164v414h115v-409q0 -128 97 -128q48 0 70 26.5t22 85.5v425h115v-405q0 -108 -57.5 -169.5t-157.5 -61.5z" glyph-name="Uacute" unicode="Ú"/><glyph d="M394 683l-127 102l-124 -101l-54 51l182 153h7l184 -140zM270 -16q-96 0 -150 58t-54 164v414h115v-409q0 -128 97 -128q48 0 70 26.5t22 85.5v425h115v-405q0 -108 -57.5 -169.5t-157.5 -61.5z" glyph-name="Ucircumflex" unicode="Û"/><glyph d="M443 695h-112l2 140h113zM221 695h-113l2 140h114zM270 -16q-96 0 -150 58t-54 164v414h115v-409q0 -128 97 -128q48 0 70 26.5t22 85.5v425h115v-405q0 -108 -57.5 -169.5t-157.5 -61.5z" glyph-name="Udieresis" unicode="Ü"/><glyph d="M159 733q44 29 105 81.5t100 95.5l82 -84q-47 -38 -123.5 -79t-135.5 -63zM334 0h-116v204l-198 414l122 4l137 -309l133 307h118l-196 -414v-206z" glyph-name="Yacute" unicode="Ý"/><glyph d="M202 0h-115v620h115v-92q152 7 230.5 -43t78.5 -152q0 -105 -82.5 -162.5t-226.5 -72.5v-98zM399 310q0 69 -50 100t-147 21v-236q99 -9 148 18t49 97z" glyph-name="Thorn" unicode="Þ"/><glyph d="M364 357q0 -17 17 -34.5t41 -34t47.5 -35.5t40.5 -47t17 -61q0 -69 -63 -113.5t-206 -38.5l5 97q152 -15 152 50q0 21 -25 43t-54.5 39.5t-54.5 49t-25 70.5q0 38 44.5 100t44.5 98q0 33 -19.5 55.5t-56.5 22.5q-46 0 -68 -33t-22 -104v-481h-110v457q0 113 59.5 184 t165.5 71q79 0 120.5 -44.5t41.5 -103.5q0 -38 -14.5 -72.5t-31.5 -54.5t-31.5 -42t-14.5 -38z" glyph-name="germandbls" unicode="ß"/><glyph d="M384 611l-31 -48q-144 61 -255 138l75 90q98 -96 211 -180zM253 73q57 0 114 39q-1 11 -3 103q-109 11 -152 -8t-43 -64q0 -33 22.5 -51.5t61.5 -18.5zM381 -3q-3 12 -9 60q-72 -70 -163 -70q-68 0 -109 35t-41 95q0 80 77 128.5t227 42.5q-4 72 -58.5 96.5t-216.5 29.5 l11 94q152 -3 232 -28t111.5 -79t31.5 -154q0 -121 9 -245z" glyph-name="agrave" unicode="à"/><glyph d="M153 615q44 29 105 81.5t100 95.5l82 -84q-47 -38 -123.5 -79t-135.5 -63zM253 73q57 0 114 39q-1 11 -3 103q-109 11 -152 -8t-43 -64q0 -33 22.5 -51.5t61.5 -18.5zM381 -3q-3 12 -9 60q-72 -70 -163 -70q-68 0 -109 35t-41 95q0 80 77 128.5t227 42.5 q-4 72 -58.5 96.5t-216.5 29.5l11 94q152 -3 232 -28t111.5 -79t31.5 -154q0 -121 9 -245z" glyph-name="aacute" unicode="á"/><glyph d="M390 568l-127 102l-124 -101l-54 51l182 153h7l184 -140zM253 73q57 0 114 39q-1 11 -3 103q-109 11 -152 -8t-43 -64q0 -33 22.5 -51.5t61.5 -18.5zM381 -3q-3 12 -9 60q-72 -70 -163 -70q-68 0 -109 35t-41 95q0 80 77 128.5t227 42.5q-4 72 -58.5 96.5t-216.5 29.5 l11 94q152 -3 232 -28t111.5 -79t31.5 -154q0 -121 9 -245z" glyph-name="acircumflex" unicode="â"/><glyph d="M348 575q-27 0 -56.5 21.5t-54 43t-39.5 21.5q-29 0 -69 -78l-57 27q27 64 63.5 102.5t75.5 38.5q22 0 45 -13.5t39.5 -30t34.5 -30t30 -13.5q30 0 69 79l58 -27q-28 -65 -64 -103t-75 -38zM253 73q57 0 114 39q-1 11 -3 103q-109 11 -152 -8t-43 -64q0 -33 22.5 -51.5 t61.5 -18.5zM381 -3q-3 12 -9 60q-72 -70 -163 -70q-68 0 -109 35t-41 95q0 80 77 128.5t227 42.5q-4 72 -58.5 96.5t-216.5 29.5l11 94q152 -3 232 -28t111.5 -79t31.5 -154q0 -121 9 -245z" glyph-name="atilde" unicode="ã"/><glyph d="M439 580h-112l2 140h113zM217 580h-113l2 140h114zM253 73q57 0 114 39q-1 11 -3 103q-109 11 -152 -8t-43 -64q0 -33 22.5 -51.5t61.5 -18.5zM381 -3q-3 12 -9 60q-72 -70 -163 -70q-68 0 -109 35t-41 95q0 80 77 128.5t227 42.5q-4 72 -58.5 96.5t-216.5 29.5l11 94 q152 -3 232 -28t111.5 -79t31.5 -154q0 -121 9 -245z" glyph-name="adieresis" unicode="ä"/><glyph d="M271 775q58 0 96 -31t38 -75q0 -49 -37 -80t-97 -31q-59 0 -96.5 30.5t-37.5 76.5q0 47 37 78.5t97 31.5zM253 73q57 0 114 39q-1 11 -3 103q-109 11 -152 -8t-43 -64q0 -33 22.5 -51.5t61.5 -18.5zM381 -3q-3 12 -9 60q-72 -70 -163 -70q-68 0 -109 35t-41 95 q0 80 77 128.5t227 42.5q-4 72 -58.5 96.5t-216.5 29.5l11 94q152 -3 232 -28t111.5 -79t31.5 -154q0 -121 9 -245z" glyph-name="aring" unicode="å"/><glyph d="M506 -7q-186 -3 -244 68q-51 -68 -125 -68q-51 0 -80.5 33.5t-29.5 93.5q0 164 196 167q-2 72 -34.5 95t-141.5 28l8 93q92 -5 140.5 -20.5t70.5 -51.5q41 75 120 75q74 0 109 -74t26 -208l-205 -5q1 -53 14.5 -79t55.5 -39.5t128 -15.5zM372 414q-30 0 -42 -28.5 t-14 -99.5l104 2q-2 126 -48 126zM179 79q33 0 57 30q-13 42 -13 112q-50 2 -71.5 -17t-21.5 -58q0 -67 49 -67z" glyph-name="ae" unicode="æ"/><glyph d="M413 -118q0 -42 -52 -72t-151 -40l-7 85q110 14 110 41q0 29 -89 75l17 38q-169 46 -169 232q0 117 91 190t299 74l7 -105q-91 3 -149.5 -5t-88 -29t-39.5 -46t-10 -65q0 -98 65 -137.5t229 -29.5l-11 -92q-90 -8 -156 0q104 -54 104 -114z" glyph-name="ccedilla" unicode="ç"/><glyph d="M396 612l-31 -48q-144 61 -255 138l75 90q98 -96 211 -180zM464 -12q-119 -1 -199.5 15t-125.5 50t-63.5 78.5t-18.5 108.5q0 114 72 192.5t171 78.5q104 0 153.5 -76t35.5 -207l-321 -9q9 -75 75.5 -104.5t231.5 -33.5zM280 420q-106 0 -113 -135q6 0 216 7 q-5 128 -103 128z" glyph-name="egrave" unicode="è"/><glyph d="M166 616q44 29 105 81.5t100 95.5l82 -84q-47 -38 -123.5 -79t-135.5 -63zM464 -12q-119 -1 -199.5 15t-125.5 50t-63.5 78.5t-18.5 108.5q0 114 72 192.5t171 78.5q104 0 153.5 -76t35.5 -207l-321 -9q9 -75 75.5 -104.5t231.5 -33.5zM280 420q-106 0 -113 -135 q6 0 216 7q-5 128 -103 128z" glyph-name="eacute" unicode="é"/><glyph d="M402 569l-127 102l-124 -101l-54 51l182 153h7l184 -140zM464 -12q-119 -1 -199.5 15t-125.5 50t-63.5 78.5t-18.5 108.5q0 114 72 192.5t171 78.5q104 0 153.5 -76t35.5 -207l-321 -9q9 -75 75.5 -104.5t231.5 -33.5zM280 420q-106 0 -113 -135q6 0 216 7 q-5 128 -103 128z" glyph-name="ecircumflex" unicode="ê"/><glyph d="M452 581h-112l2 140h113zM230 581h-113l2 140h114zM464 -12q-119 -1 -199.5 15t-125.5 50t-63.5 78.5t-18.5 108.5q0 114 72 192.5t171 78.5q104 0 153.5 -76t35.5 -207l-321 -9q9 -75 75.5 -104.5t231.5 -33.5zM280 420q-106 0 -113 -135q6 0 216 7q-5 128 -103 128z" glyph-name="edieresis" unicode="ë"/><glyph d="M410 604l-31 -48q-144 61 -255 138l75 90q98 -96 211 -180zM517 0h-449v84h173v327l-175 8l9 79h278v-414h173z" glyph-name="igrave" unicode="ì"/><glyph d="M179 608q44 29 105 81.5t100 95.5l82 -84q-47 -38 -123.5 -79t-135.5 -63zM517 0h-449v84h173v327l-175 8l9 79h278v-414h173z" glyph-name="iacute" unicode="í"/><glyph d="M416 561l-127 102l-124 -101l-54 51l182 153h7l184 -140zM517 0h-449v84h173v327l-175 8l9 79h278v-414h173z" glyph-name="icircumflex" unicode="î"/><glyph d="M465 573h-112l2 140h113zM243 573h-113l2 140h114zM517 0h-449v84h173v327l-175 8l9 79h278v-414h173z" glyph-name="idieresis" unicode="ï"/><glyph d="M263 -14q-91 0 -152 62.5t-61 167.5q0 117 82 182t196 63q-26 39 -61 76l-129 -59l-24 63l99 45q-37 30 -84 60l72 66q66 -43 110 -82l109 50l24 -63l-80 -37q133 -140 133 -320q0 -129 -67.5 -201.5t-166.5 -72.5zM277 76q53 0 83 44t30 129q0 57 -15 109 q-106 33 -161 -3t-55 -125q0 -70 33.5 -112t84.5 -42z" glyph-name="eth" unicode="ð"/><glyph d="M352 581q-27 0 -56.5 21.5t-54 43t-39.5 21.5q-29 0 -69 -78l-57 27q27 64 63.5 102.5t75.5 38.5q22 0 45 -13.5t39.5 -30t34.5 -30t30 -13.5q30 0 69 79l58 -27q-28 -65 -64 -103t-75 -38zM286 416q-50 0 -101 -33q4 -186 4 -383h-112q0 343 -8 494l103 6l6 -57 q76 68 160 68q143 0 143 -172v-339h-111v300q0 116 -84 116z" glyph-name="ntilde" unicode="ñ"/><glyph d="M388 610l-31 -48q-144 61 -255 138l75 90q98 -96 211 -180zM259 -15q-94 0 -152.5 67t-58.5 185q0 119 71 197.5t172 78.5q96 0 153.5 -67t57.5 -186q0 -122 -70.5 -198.5t-172.5 -76.5zM279 75q52 0 81.5 42t29.5 123q0 88 -31.5 135t-86.5 47q-52 0 -81.5 -42 t-29.5 -122q0 -89 31.5 -136t86.5 -47z" glyph-name="ograve" unicode="ò"/><glyph d="M157 614q44 29 105 81.5t100 95.5l82 -84q-47 -38 -123.5 -79t-135.5 -63zM259 -15q-94 0 -152.5 67t-58.5 185q0 119 71 197.5t172 78.5q96 0 153.5 -67t57.5 -186q0 -122 -70.5 -198.5t-172.5 -76.5zM279 75q52 0 81.5 42t29.5 123q0 88 -31.5 135t-86.5 47 q-52 0 -81.5 -42t-29.5 -122q0 -89 31.5 -136t86.5 -47z" glyph-name="oacute" unicode="ó"/><glyph d="M394 567l-127 102l-124 -101l-54 51l182 153h7l184 -140zM259 -15q-94 0 -152.5 67t-58.5 185q0 119 71 197.5t172 78.5q96 0 153.5 -67t57.5 -186q0 -122 -70.5 -198.5t-172.5 -76.5zM279 75q52 0 81.5 42t29.5 123q0 88 -31.5 135t-86.5 47q-52 0 -81.5 -42t-29.5 -122 q0 -89 31.5 -136t86.5 -47z" glyph-name="ocircumflex" unicode="ô"/><glyph d="M352 574q-27 0 -56.5 21.5t-54 43t-39.5 21.5q-29 0 -69 -78l-57 27q27 64 63.5 102.5t75.5 38.5q27 0 56.5 -22t53.5 -43.5t39 -21.5q30 0 69 79l58 -27q-28 -65 -64 -103t-75 -38zM259 -15q-94 0 -152.5 67t-58.5 185q0 119 71 197.5t172 78.5q96 0 153.5 -67 t57.5 -186q0 -122 -70.5 -198.5t-172.5 -76.5zM279 75q52 0 81.5 42t29.5 123q0 88 -31.5 135t-86.5 47q-52 0 -81.5 -42t-29.5 -122q0 -89 31.5 -136t86.5 -47z" glyph-name="otilde" unicode="õ"/><glyph d="M443 579h-112l2 140h113zM221 579h-113l2 140h114zM259 -15q-94 0 -152.5 67t-58.5 185q0 119 71 197.5t172 78.5q96 0 153.5 -67t57.5 -186q0 -122 -70.5 -198.5t-172.5 -76.5zM279 75q52 0 81.5 42t29.5 123q0 88 -31.5 135t-86.5 47q-52 0 -81.5 -42t-29.5 -122 q0 -89 31.5 -136t86.5 -47z" glyph-name="odieresis" unicode="ö"/><glyph d="M332 421h-115l1 111h116zM493 344v-93h-436v93h436zM332 63h-116l2 111h116z" glyph-name="divide" unicode="÷"/><glyph d="M159 258q0 -62 15 -103l169 242q-31 26 -71 26q-52 0 -82.5 -42.5t-30.5 -122.5zM279 74q53 0 83.5 42.5t30.5 123.5q0 61 -15 100l-169 -240q29 -26 70 -26zM259 -15q-59 0 -104 27l-36 -51l-63 42l42 59q-50 67 -50 175q0 119 71 197.5t172 78.5q63 0 107 -28l36 51 l64 -42l-43 -61q47 -66 47 -173q0 -122 -70.5 -198.5t-172.5 -76.5z" glyph-name="oslash" unicode="ø"/><glyph d="M390 607l-31 -48q-144 61 -255 138l75 90q98 -96 211 -180zM378 -2l-6 56q-77 -67 -159 -67q-142 0 -142 172v335l111 7v-303q0 -63 21 -89.5t62 -26.5q51 0 100 34q-3 138 -3 382h111q0 -343 8 -495z" glyph-name="ugrave" unicode="ù"/><glyph d="M160 611q44 29 105 81.5t100 95.5l82 -84q-47 -38 -123.5 -79t-135.5 -63zM378 -2l-6 56q-77 -67 -159 -67q-142 0 -142 172v335l111 7v-303q0 -63 21 -89.5t62 -26.5q51 0 100 34q-3 138 -3 382h111q0 -343 8 -495z" glyph-name="uacute" unicode="ú"/><glyph d="M396 564l-127 102l-124 -101l-54 51l182 153h7l184 -140zM378 -2l-6 56q-77 -67 -159 -67q-142 0 -142 172v335l111 7v-303q0 -63 21 -89.5t62 -26.5q51 0 100 34q-3 138 -3 382h111q0 -343 8 -495z" glyph-name="ucircumflex" unicode="û"/><glyph d="M446 576h-112l2 140h113zM224 576h-113l2 140h114zM378 -2l-6 56q-77 -67 -159 -67q-142 0 -142 172v335l111 7v-303q0 -63 21 -89.5t62 -26.5q51 0 100 34q-3 138 -3 382h111q0 -343 8 -495z" glyph-name="udieresis" unicode="ü"/><glyph d="M163 612q44 29 105 81.5t100 95.5l82 -84q-47 -38 -123.5 -79t-135.5 -63zM71 -177l-9 100q92 13 124.5 29.5t53.5 65.5l-19 7q-56 125 -188 469l113 8q121 -324 140 -370h10q13 39 38.5 126l46.5 156.5t27 83.5h107q-77 -240 -140 -411q-54 -151 -112 -201.5t-192 -62.5 z" glyph-name="yacute" unicode="ý"/><glyph d="M254 83q60 0 97.5 42.5t37.5 121.5q0 84 -32 128.5t-84 44.5q-42 0 -84 -29v-296q33 -12 65 -12zM189 -164l-111 -10v875l111 10v-253q58 53 129 53q79 0 130 -65t51 -172q0 -132 -80.5 -209.5t-200.5 -77.5q-19 0 -29 1v-152z" glyph-name="thorn" unicode="þ"/><glyph d="M449 577h-112l2 140h113zM227 577h-113l2 140h114zM71 -177l-9 100q92 13 124.5 29.5t53.5 65.5l-19 7q-56 125 -188 469l113 8q121 -324 140 -370h10q13 39 38.5 126l46.5 156.5t27 83.5h107q-77 -240 -140 -411q-54 -151 -112 -201.5t-192 -62.5z" glyph-name="ydieresis" unicode="ÿ"/><glyph d="M446 813v-95h-346v95h346zM408 -4l-42 176h-184l-41 -172h-114q104 403 169 621h159q81 -274 169 -617zM270 527l-68 -271h144l-68 271h-8z" glyph-name="Amacron" unicode="Ā"/><glyph d="M444 698v-95h-346v95h346zM253 73q57 0 114 39q-1 11 -3 103q-109 11 -152 -8t-43 -64q0 -33 22.5 -51.5t61.5 -18.5zM381 -3q-3 12 -9 60q-72 -70 -163 -70q-68 0 -109 35t-41 95q0 80 77 128.5t227 42.5q-4 72 -58.5 96.5t-216.5 29.5l11 94q152 -3 232 -28t111.5 -79 t31.5 -154q0 -121 9 -245z" glyph-name="amacron" unicode="ā"/><glyph d="M274 686q-113 0 -194 146l77 45q35 -55 64 -78.5t63 -23.5t64 23.5t64 73.5l63 -32q-91 -154 -201 -154zM408 -4l-42 176h-184l-41 -172h-114q104 403 169 621h159q81 -274 169 -617zM270 527l-68 -271h144l-68 271h-8z" glyph-name="Abreve" unicode="Ă"/><glyph d="M272 571q-113 0 -194 146l77 45q35 -55 64 -78.5t63 -23.5t64 23.5t64 73.5l63 -32q-91 -154 -201 -154zM253 73q57 0 114 39q-1 11 -3 103q-109 11 -152 -8t-43 -64q0 -33 22.5 -51.5t61.5 -18.5zM381 -3q-3 12 -9 60q-72 -70 -163 -70q-68 0 -109 35t-41 95 q0 80 77 128.5t227 42.5q-4 72 -58.5 96.5t-216.5 29.5l11 94q152 -3 232 -28t111.5 -79t31.5 -154q0 -121 9 -245z" glyph-name="abreve" unicode="ă"/><glyph d="M502 -220q-205 10 -205 101q0 60 109 122l-40 169h-184l-41 -172h-114q104 403 169 621h159q81 -274 169 -617q-122 -53 -122 -92q0 -35 110 -45zM270 527l-68 -271h144l-68 271h-8z" glyph-name="Aogonek" unicode="Ą"/><glyph d="M461 -222q-205 10 -205 102q0 63 123 129l-2.5 19.5t-4 25.5t-3.5 21q-73 -88 -163 -88q-66 0 -106.5 35t-40.5 95q0 80 77 128.5t227 42.5q-4 72 -58.5 96.5t-216.5 29.5l11 94q152 -3 232 -28t111.5 -79t31.5 -154q0 -121 9 -245q-122 -53 -122 -92q0 -36 109 -44z M250 73q64 0 116 55q-1 14 -1.5 42.5t-0.5 44.5q-109 11 -152 -8t-43 -64q0 -33 22 -51.5t59 -18.5z" glyph-name="aogonek" unicode="ą"/><glyph d="M191 730q44 29 105 81.5t100 95.5l82 -84q-47 -38 -123.5 -79t-135.5 -63zM484 94l-10 -98q-413 -34 -413 305q0 68 21.5 124t68 102t128 73t193.5 29l6 -110q-94 2 -154 -10t-91 -40t-42 -63t-11 -90q0 -127 66 -179t238 -43z" glyph-name="Cacute" unicode="Ć"/><glyph d="M177 608q44 29 105 81.5t100 95.5l82 -84q-47 -38 -123.5 -79t-135.5 -63zM72 241q0 117 91 190t299 74l7 -105q-91 3 -149.5 -5t-88 -29t-39.5 -46t-10 -65q0 -98 65 -137.5t229 -29.5l-11 -92q-91 -8 -160 1t-113 29.5t-71 54.5t-38 72.5t-11 87.5z" glyph-name="cacute" unicode="ć"/><glyph d="M369 695h-115l4 140h116zM484 94l-10 -98q-413 -34 -413 305q0 68 21.5 124t68 102t128 73t193.5 29l6 -110q-94 2 -154 -10t-91 -40t-42 -63t-11 -90q0 -127 66 -179t238 -43z" glyph-name="Cdotaccent" unicode="Ċ"/><glyph d="M354 573h-115l4 140h116zM72 241q0 117 91 190t299 74l7 -105q-91 3 -149.5 -5t-88 -29t-39.5 -46t-10 -65q0 -98 65 -137.5t229 -29.5l-11 -92q-91 -8 -160 1t-113 29.5t-71 54.5t-38 72.5t-11 87.5z" glyph-name="cdotaccent" unicode="ċ"/><glyph d="M320 676h-7l-184 140l69 66l127 -102l124 101l53 -52zM484 94l-10 -98q-413 -34 -413 305q0 68 21.5 124t68 102t128 73t193.5 29l6 -110q-94 2 -154 -10t-91 -40t-42 -63t-11 -90q0 -127 66 -179t238 -43z" glyph-name="Ccaron" unicode="Č"/><glyph d="M305 554h-7l-184 140l69 66l127 -102l124 101l53 -52zM72 241q0 117 91 190t299 74l7 -105q-91 3 -149.5 -5t-88 -29t-39.5 -46t-10 -65q0 -98 65 -137.5t229 -29.5l-11 -92q-91 -8 -160 1t-113 29.5t-71 54.5t-38 72.5t-11 87.5z" glyph-name="ccaron" unicode="č"/><glyph d="M273 682h-7l-184 140l69 66l127 -102l124 101l53 -52zM508 322q0 -186 -106.5 -269.5t-326.5 -52.5v620q235 31 334 -41t99 -257zM392 305q0 129 -46 184t-158 43v-442q111 -16 157.5 35.5t46.5 179.5z" glyph-name="Dcaron" unicode="Ď"/><glyph d="M538 566q31 109 6 239l119 1q7 -132 -76 -255zM277 78q46 0 85 31q-3 116 -3 294q-41 13 -71 13q-59 0 -94 -43t-35 -123q0 -85 32 -128.5t86 -43.5zM374 -3l-6 50q-62 -60 -137 -60q-81 0 -131.5 63t-50.5 172q0 134 82 211.5t205 77.5q15 0 23 -1v191l111 10v-212 q0 -342 7 -496z" glyph-name="dcaron" unicode="ď"/><glyph d="M508 322q0 -186 -106.5 -269.5t-326.5 -52.5v274h-62v78h62v268q235 31 334 -41t99 -257zM188 90q111 -16 157.5 35.5t46.5 179.5q0 129 -46 184t-158 43v-180h110l-5 -78h-105v-184z" glyph-name="Dcroat" unicode="Đ"/><glyph d="M277 78q44 0 84 30q-2 120 -3 293q-41 13 -70 13q-59 0 -94 -42.5t-35 -121.5q0 -85 32 -128.5t86 -43.5zM373 -3l-5 50q-62 -60 -137 -60q-81 0 -131.5 63t-50.5 172q0 131 82 207.5t205 76.5q15 0 22 -1v65h-123v70h123v56l112 9v-65h62v-71h-62v-70q0 -342 7 -496z" glyph-name="dcroat" unicode="đ"/><glyph d="M462 813v-95h-346v95h346zM489 96l-9 -96h-384v620h387v-96h-272v-170h233v-84h-233v-174h278z" glyph-name="Emacron" unicode="Ē"/><glyph d="M457 699v-95h-346v95h346zM464 -12q-119 -1 -199.5 15t-125.5 50t-63.5 78.5t-18.5 108.5q0 114 72 192.5t171 78.5q104 0 153.5 -76t35.5 -207l-321 -9q9 -75 75.5 -104.5t231.5 -33.5zM280 420q-106 0 -113 -135q6 0 216 7q-5 128 -103 128z" glyph-name="emacron" unicode="ē"/><glyph d="M290 686q-113 0 -194 146l77 45q35 -55 64 -78.5t63 -23.5t64 23.5t64 73.5l63 -32q-91 -154 -201 -154zM489 96l-9 -96h-384v620h387v-96h-272v-170h233v-84h-233v-174h278z" glyph-name="Ebreve" unicode="Ĕ"/><glyph d="M285 572q-113 0 -194 146l77 45q35 -55 64 -78.5t63 -23.5t64 23.5t64 73.5l63 -32q-91 -154 -201 -154zM464 -12q-119 -1 -199.5 15t-125.5 50t-63.5 78.5t-18.5 108.5q0 114 72 192.5t171 78.5q104 0 153.5 -76t35.5 -207l-321 -9q9 -75 75.5 -104.5t231.5 -33.5z M280 420q-106 0 -113 -135q6 0 216 7q-5 128 -103 128z" glyph-name="ebreve" unicode="ĕ"/><glyph d="M348 695h-115l4 140h116zM489 96l-9 -96h-384v620h387v-96h-272v-170h233v-84h-233v-174h278z" glyph-name="Edotaccent" unicode="Ė"/><glyph d="M343 581h-115l4 140h116zM464 -12q-119 -1 -199.5 15t-125.5 50t-63.5 78.5t-18.5 108.5q0 114 72 192.5t171 78.5q104 0 153.5 -76t35.5 -207l-321 -9q9 -75 75.5 -104.5t231.5 -33.5zM280 420q-106 0 -113 -135q6 0 216 7q-5 128 -103 128z" glyph-name="edotaccent" unicode="ė"/><glyph d="M468 -137l-10 -87q-205 10 -205 101q0 59 112 123h-269v620h387v-96h-272v-170h233v-84h-233v-174h278l-9 -96q-121 -53 -121 -92q0 -35 109 -45z" glyph-name="Eogonek" unicode="Ę"/><glyph d="M438 -222q-105 5 -154.5 32t-49.5 67q0 65 121 124q-157 0 -227.5 61t-70.5 178q0 114 72 192.5t171 78.5q104 0 153.5 -76t35.5 -207l-321 -9q9 -75 75.5 -104.5t231.5 -33.5l-11 -89q-125 -45 -125 -82q0 -35 109 -45zM280 420q-106 0 -113 -135q6 0 216 7 q-5 128 -103 128z" glyph-name="eogonek" unicode="ę"/><glyph d="M299 676h-7l-184 140l69 66l127 -102l124 101l53 -52zM489 96l-9 -96h-384v620h387v-96h-272v-170h233v-84h-233v-174h278z" glyph-name="Ecaron" unicode="Ě"/><glyph d="M294 562h-7l-184 140l69 66l127 -102l124 101l53 -52zM464 -12q-119 -1 -199.5 15t-125.5 50t-63.5 78.5t-18.5 108.5q0 114 72 192.5t171 78.5q104 0 153.5 -76t35.5 -207l-321 -9q9 -75 75.5 -104.5t231.5 -33.5zM280 420q-106 0 -113 -135q6 0 216 7q-5 128 -103 128z" glyph-name="ecaron" unicode="ě"/><glyph d="M294 686q-113 0 -194 146l77 45q35 -55 64 -78.5t63 -23.5t64 23.5t64 73.5l63 -32q-91 -154 -201 -154zM485 8q-215 -47 -325.5 32.5t-110.5 252.5q0 324 404 336l7 -110q-92 4 -152.5 -9t-90.5 -43.5t-40.5 -66t-10.5 -88.5q0 -118 50.5 -175.5t166.5 -55.5 q0 27 -2 107.5l-3 121.5h106q0 -222 1 -302z" glyph-name="Gbreve" unicode="Ğ"/><glyph d="M289 571q-113 0 -194 146l77 45q35 -55 64 -78.5t63 -23.5t64 23.5t64 73.5l63 -32q-91 -154 -201 -154zM122 -175l-10 100q60 5 95.5 9.5t66 12.5t45.5 17.5t25.5 28t13.5 39t4 54.5q-58 -42 -128 -42q-80 0 -131.5 56.5t-51.5 150.5q0 116 78.5 187.5t191.5 71.5 q70 0 150 -24q3 -82 3 -351q0 -72 -15.5 -124t-53.5 -93.5t-108.5 -64.5t-174.5 -28zM277 131q41 0 85 21v251q-45 13 -81 13q-55 0 -87.5 -36t-32.5 -103q0 -71 32.5 -108.5t83.5 -37.5z" glyph-name="gbreve" unicode="ğ"/><glyph d="M352 695h-115l4 140h116zM485 8q-215 -47 -325.5 32.5t-110.5 252.5q0 324 404 336l7 -110q-92 4 -152.5 -9t-90.5 -43.5t-40.5 -66t-10.5 -88.5q0 -118 50.5 -175.5t166.5 -55.5q0 27 -2 107.5l-3 121.5h106q0 -222 1 -302z" glyph-name="Gdotaccent" unicode="Ġ"/><glyph d="M347 580h-115l4 140h116zM122 -175l-10 100q60 5 95.5 9.5t66 12.5t45.5 17.5t25.5 28t13.5 39t4 54.5q-58 -42 -128 -42q-80 0 -131.5 56.5t-51.5 150.5q0 116 78.5 187.5t191.5 71.5q70 0 150 -24q3 -82 3 -351q0 -72 -15.5 -124t-53.5 -93.5t-108.5 -64.5t-174.5 -28z M277 131q41 0 85 21v251q-45 13 -81 13q-55 0 -87.5 -36t-32.5 -103q0 -71 32.5 -108.5t83.5 -37.5z" glyph-name="gdotaccent" unicode="ġ"/><glyph d="M485 8q-215 -47 -325.5 32.5t-110.5 252.5q0 324 404 336l7 -110q-92 4 -152.5 -9t-90.5 -43.5t-40.5 -66t-10.5 -88.5q0 -118 50.5 -175.5t166.5 -55.5q0 27 -2 107.5l-3 121.5h106q0 -222 1 -302zM221 -275q37 92 4 195q1 0 66 3t67 3q3 -58 -17.5 -117.5t-62.5 -101.5 z" glyph-name="Gcommaaccent" unicode="Ģ"/><glyph d="M357 776q-36 -94 -4 -195l-132 -6q-3 59 17.5 118t62.5 101zM122 -175l-10 100q60 5 95.5 9.5t66 12.5t45.5 17.5t25.5 28t13.5 39t4 54.5q-58 -42 -128 -42q-80 0 -131.5 56.5t-51.5 150.5q0 116 78.5 187.5t191.5 71.5q70 0 150 -24q3 -82 3 -351q0 -72 -15.5 -124 t-53.5 -93.5t-108.5 -64.5t-174.5 -28zM277 131q41 0 85 21v251q-45 13 -81 13q-55 0 -87.5 -36t-32.5 -103q0 -71 32.5 -108.5t83.5 -37.5z" glyph-name="gcommaaccent" unicode="ģ"/><glyph d="M364 340v100h-178v-100h178zM364 0v252h-178v-252h-117v436h-63v78h63v106h117v-110h178v110h118v-106h63v-78h-63v-436h-118z" glyph-name="Hbar" unicode="Ħ"/><glyph d="M286 416q-50 0 -98 -30v-386h-112v569h-63v71h63v61l112 10v-71h123v-70h-123v-120q70 57 150 57q143 0 143 -168v-339h-111v300q0 63 -21.5 89.5t-62.5 26.5z" glyph-name="hbar" unicode="ħ"/><glyph d="M451 813v-95h-346v95h346zM333 531v-442h148l-8 -89h-398v89h143v442h-143v89h401v-89h-143z" glyph-name="Imacron" unicode="Ī"/><glyph d="M470 691v-95h-346v95h346zM517 0h-449v84h173v327l-175 8l9 79h278v-414h173z" glyph-name="imacron" unicode="ī"/><glyph d="M279 686q-113 0 -194 146l77 45q35 -55 64 -78.5t63 -23.5t64 23.5t64 73.5l63 -32q-91 -154 -201 -154zM333 531v-442h148l-8 -89h-398v89h143v442h-143v89h401v-89h-143z" glyph-name="Ibreve" unicode="Ĭ"/><glyph d="M299 564q-113 0 -194 146l77 45q35 -55 64 -78.5t63 -23.5t64 23.5t64 73.5l63 -32q-91 -154 -201 -154zM517 0h-449v84h173v327l-175 8l9 79h278v-414h173z" glyph-name="ibreve" unicode="ĭ"/><glyph d="M368 -133l-10 -88q-204 10 -204 106q0 55 77 115h-156v89h143v442h-143v89h401v-89h-143v-442h148l-8 -89h-148q-66 -50 -66 -87q0 -38 109 -46z" glyph-name="Iogonek" unicode="Į"/><glyph d="M350 573h-115l7 140h117zM374 -137l-9 -87q-205 10 -205 103q0 58 89 121h-181v84h173v327l-175 8l9 79h278v-414h173l-9 -84h-170q-82 -53 -82 -91q0 -36 109 -46z" glyph-name="iogonek" unicode="į"/><glyph d="M338 695h-115l4 140h116zM333 531v-442h148l-8 -89h-398v89h143v442h-143v89h401v-89h-143z" glyph-name="Idotaccent" unicode="İ"/><glyph d="M517 0h-449v84h173v327l-175 8l9 79h278v-414h173z" glyph-name="dotlessi" unicode="ı"/><glyph d="M404 -7l-161 273h-51v-266h-114v620h114v-259h56l144 259h122l-176 -301l190 -312zM205 -273q37 92 4 195q1 0 66 3t67 3q3 -58 -17.5 -117.5t-62.5 -101.5z" glyph-name="Kcommaaccent" unicode="Ķ"/><glyph d="M406 -7l-148 222l-59 -2v-213h-111v701l111 10v-418l59 1q66 84 139 207l114 -9q-83 -130 -159 -229l173 -256zM220 -273q37 92 4 195q1 0 66 3t67 3q3 -58 -17.5 -117.5t-62.5 -101.5z" glyph-name="kcommaaccent" unicode="ķ"/><glyph d="M178 730q44 29 105 81.5t100 95.5l82 -84q-47 -38 -123.5 -79t-135.5 -63zM489 0h-385v620h115v-524h280z" glyph-name="Lacute" unicode="Ĺ"/><glyph d="M161 810q44 29 105 81.5t100 95.5l82 -84q-47 -38 -123.5 -79t-135.5 -63zM480 0h-411v84h154v528l-149 8l10 79h251v-615h154z" glyph-name="lacute" unicode="ĺ"/><glyph d="M489 0h-385v620h115v-524h280zM225 -266q37 92 4 195q1 0 66 3t67 3q3 -58 -17.5 -117.5t-62.5 -101.5z" glyph-name="Lcommaaccent" unicode="Ļ"/><glyph d="M480 0h-411v84h154v528l-149 8l10 79h251v-615h154zM208 -266q37 92 4 195q1 0 66 3t67 3q3 -58 -17.5 -117.5t-62.5 -101.5z" glyph-name="lcommaaccent" unicode="ļ"/><glyph d="M353 465q31 109 6 239l119 1q7 -132 -76 -255zM489 0h-385v620h115v-524h280z" glyph-name="Lcaron" unicode="Ľ"/><glyph d="M425 566q31 109 6 239l119 1q7 -132 -76 -255zM480 0h-411v84h154v528l-149 8l10 79h251v-615h154z" glyph-name="lcaron" unicode="ľ"/><glyph d="M489 0h-385v620h115v-524h280zM489 260h-113l8 129h111z" glyph-name="Ldot" unicode="Ŀ"/><glyph d="M480 0h-411v84h154v528l-149 8l10 79h251v-615h154zM605 260h-110l8 128h109z" glyph-name="ldot" unicode="ŀ"/><glyph d="M489 0h-385v278l-60 -30l-17 75l77 39v258h115v-200l115 58l17 -75l-132 -67v-240h280z" glyph-name="Lslash" unicode="Ł"/><glyph d="M480 0h-411v84h154v214l-106 -54l-18 73l124 63v232l-149 8l10 79h251v-263l99 50l18 -72l-117 -59v-271h154z" glyph-name="lslash" unicode="ł"/><glyph d="M158 730q44 29 105 81.5t100 95.5l82 -84q-47 -38 -123.5 -79t-135.5 -63zM383 0l-207 414h-5l4 -414h-106v620h108l199 -409h4l-5 409h106v-620h-98z" glyph-name="Nacute" unicode="Ń"/><glyph d="M157 621q44 29 105 81.5t100 95.5l82 -84q-47 -38 -123.5 -79t-135.5 -63zM286 416q-50 0 -101 -33q4 -186 4 -383h-112q0 343 -8 494l103 6l6 -57q76 68 160 68q143 0 143 -172v-339h-111v300q0 116 -84 116z" glyph-name="nacute" unicode="ń"/><glyph d="M383 0l-207 414h-5l4 -414h-106v620h108l199 -409h4l-5 409h106v-620h-98zM205 -266q37 92 4 195q1 0 66 3t67 3q3 -58 -17.5 -117.5t-62.5 -101.5z" glyph-name="Ncommaaccent" unicode="Ņ"/><glyph d="M286 416q-50 0 -101 -33q4 -186 4 -383h-112q0 343 -8 494l103 6l6 -57q76 68 160 68q143 0 143 -172v-339h-111v300q0 116 -84 116zM219 -266q37 92 4 195q1 0 66 3t67 3q3 -58 -17.5 -117.5t-62.5 -101.5z" glyph-name="ncommaaccent" unicode="ņ"/><glyph d="M286 676h-7l-184 140l69 66l127 -102l124 101l53 -52zM383 0l-207 414h-5l4 -414h-106v620h108l199 -409h4l-5 409h106v-620h-98z" glyph-name="Ncaron" unicode="Ň"/><glyph d="M285 567h-7l-184 140l69 66l127 -102l124 101l53 -52zM286 416q-50 0 -101 -33q4 -186 4 -383h-112q0 343 -8 494l103 6l6 -57q76 68 160 68q143 0 143 -172v-339h-111v300q0 116 -84 116z" glyph-name="ncaron" unicode="ň"/><glyph d="M452 820v-95h-346v95h346zM261 -16q-106 0 -163.5 80t-57.5 228q0 165 66.5 254.5t182.5 89.5q106 0 163 -80t58 -228q0 -165 -66.5 -254.5t-182.5 -89.5zM271 541q-112 0 -112 -223q0 -239 120 -239q112 0 112 223q0 239 -120 239z" glyph-name="Omacron" unicode="Ō"/><glyph d="M448 697v-95h-346v95h346zM259 -15q-94 0 -152.5 67t-58.5 185q0 119 71 197.5t172 78.5q96 0 153.5 -67t57.5 -186q0 -122 -70.5 -198.5t-172.5 -76.5zM279 75q52 0 81.5 42t29.5 123q0 88 -31.5 135t-86.5 47q-52 0 -81.5 -42t-29.5 -122q0 -89 31.5 -136t86.5 -47z" glyph-name="omacron" unicode="ō"/><glyph d="M280 693q-113 0 -194 146l77 45q35 -55 64 -78.5t63 -23.5t64 23.5t64 73.5l63 -32q-91 -154 -201 -154zM261 -16q-106 0 -163.5 80t-57.5 228q0 165 66.5 254.5t182.5 89.5q106 0 163 -80t58 -228q0 -165 -66.5 -254.5t-182.5 -89.5zM271 541q-112 0 -112 -223 q0 -239 120 -239q112 0 112 223q0 239 -120 239z" glyph-name="Obreve" unicode="Ŏ"/><glyph d="M276 570q-113 0 -194 146l77 45q35 -55 64 -78.5t63 -23.5t64 23.5t64 73.5l63 -32q-91 -154 -201 -154zM259 -15q-94 0 -152.5 67t-58.5 185q0 119 71 197.5t172 78.5q96 0 153.5 -67t57.5 -186q0 -122 -70.5 -198.5t-172.5 -76.5zM279 75q52 0 81.5 42t29.5 123 q0 88 -31.5 135t-86.5 47q-52 0 -81.5 -42t-29.5 -122q0 -89 31.5 -136t86.5 -47z" glyph-name="obreve" unicode="ŏ"/><glyph d="M118 726q61 92 104 201l106 -50q-68 -102 -158 -184zM328 724q62 94 101 196l111 -44q-70 -105 -159 -184zM261 -16q-106 0 -163.5 80t-57.5 228q0 165 66.5 254.5t182.5 89.5q106 0 163 -80t58 -228q0 -165 -66.5 -254.5t-182.5 -89.5zM271 541q-112 0 -112 -223 q0 -239 120 -239q112 0 112 223q0 239 -120 239z" glyph-name="Ohungarumlaut" unicode="Ő"/><glyph d="M115 603q61 92 104 201l106 -50q-68 -102 -158 -184zM325 601q62 94 101 196l111 -44q-70 -105 -159 -184zM259 -15q-94 0 -152.5 67t-58.5 185q0 119 71 197.5t172 78.5q96 0 153.5 -67t57.5 -186q0 -122 -70.5 -198.5t-172.5 -76.5zM279 75q52 0 81.5 42t29.5 123 q0 88 -31.5 135t-86.5 47q-52 0 -81.5 -42t-29.5 -122q0 -89 31.5 -136t86.5 -47z" glyph-name="ohungarumlaut" unicode="ő"/><glyph d="M144 315q0 -117 27.5 -168.5t90.5 -50.5v427q-63 0 -90.5 -47t-27.5 -161zM516 96l-6 -96h-223q-132 0 -194 70.5t-62 228.5q0 156 65 238.5t192 82.5h223v-96h-153v-170h124v-84h-124v-174h158z" glyph-name="OE" unicode="Œ"/><glyph d="M192 81q48 0 48 159q0 176 -55 176q-51 0 -51 -157q0 -178 58 -178zM380 415q-43 0 -47 -127q18 1 53 2.5t39 1.5q-1 63 -11 93t-34 30zM509 -7q-168 -3 -224 79q-41 -80 -114 -80q-69 0 -108 62t-39 182q0 124 46.5 197t123.5 73q65 0 98 -68q41 68 105 68q70 0 102 -73 t24 -206l-189 -5q2 -80 37.5 -108t145.5 -29z" glyph-name="oe" unicode="œ"/><glyph d="M143 737q44 29 105 81.5t100 95.5l82 -84q-47 -38 -123.5 -79t-135.5 -63zM406 -9l-114 225l-98 -2v-214h-113v619q403 53 403 -171q0 -101 -101 -174l146 -268zM194 532v-238l109 3q68 46 68 126q0 63 -44 92t-133 17z" glyph-name="Racute" unicode="Ŕ"/><glyph d="M180 617q44 29 105 81.5t100 95.5l82 -84q-47 -38 -123.5 -79t-135.5 -63zM439 0h-373v84h121q-5 307 -5 327l-118 8l9 79h206q4 -18 9 -86q76 88 210 105l5 -118q-122 -7 -211 -50q1 -33 1.5 -73.5t1.5 -97.5t2 -94h151z" glyph-name="racute" unicode="ŕ"/><glyph d="M406 -9l-114 225l-98 -2v-214h-113v619q403 53 403 -171q0 -101 -101 -174l146 -268zM194 532v-238l109 3q68 46 68 126q0 63 -44 92t-133 17zM225 -275q37 92 4 195q1 0 66 3t67 3q3 -58 -17.5 -117.5t-62.5 -101.5z" glyph-name="Rcommaaccent" unicode="Ŗ"/><glyph d="M439 0h-373v84h121q-5 307 -5 327l-118 8l9 79h206q4 -18 9 -86q76 88 210 105l5 -118q-122 -7 -211 -50q1 -33 1.5 -73.5t1.5 -97.5t2 -94h151zM187 -266q37 92 4 195q1 0 66 3t67 3q3 -58 -17.5 -117.5t-62.5 -101.5z" glyph-name="rcommaaccent" unicode="ŗ"/><glyph d="M271 683h-7l-184 140l69 66l127 -102l124 101l53 -52zM406 -9l-114 225l-98 -2v-214h-113v619q403 53 403 -171q0 -101 -101 -174l146 -268zM194 532v-238l109 3q68 46 68 126q0 63 -44 92t-133 17z" glyph-name="Rcaron" unicode="Ř"/><glyph d="M308 563h-7l-184 140l69 66l127 -102l124 101l53 -52zM439 0h-373v84h121q-5 307 -5 327l-118 8l9 79h206q4 -18 9 -86q76 88 210 105l5 -118q-122 -7 -211 -50q1 -33 1.5 -73.5t1.5 -97.5t2 -94h151z" glyph-name="rcaron" unicode="ř"/><glyph d="M170 735q44 29 105 81.5t100 95.5l82 -84q-47 -38 -123.5 -79t-135.5 -63zM80 96q149 -11 218 9.5t69 62.5q0 28 -30 53.5t-72.5 48l-84.5 46.5t-72 58t-30 74q0 79 92.5 133t271.5 44l6 -103q-99 8 -154.5 1t-76 -21t-20.5 -38q0 -25 30 -50t72.5 -47.5t84.5 -47.5 t72 -60.5t30 -76.5q0 -84 -99.5 -140.5t-306.5 -48.5v103z" glyph-name="Sacute" unicode="Ś"/><glyph d="M161 609q44 29 105 81.5t100 95.5l82 -84q-47 -38 -123.5 -79t-135.5 -63zM443 503l4 -96q-242 21 -242 -41q0 -18 27.5 -36t66.5 -35t78.5 -37t67 -49t27.5 -64q0 -73 -89.5 -116t-289.5 -34l4 95q259 -17 259 49q0 19 -27.5 37t-66.5 33.5t-78 34t-66.5 46.5t-27.5 63 q0 73 86 118t267 32z" glyph-name="sacute" unicode="ś"/><glyph d="M167 -232l-7 85q110 14 110 41q0 29 -89 75l11 25q-60 -4 -112 -1v103q149 -11 218 9.5t69 62.5q0 28 -30 53.5t-72.5 48l-84.5 46.5t-72 58t-30 74q0 79 92.5 133t271.5 44l6 -103q-99 8 -154.5 1t-76 -21t-20.5 -38q0 -25 30 -50t72.5 -47.5t84.5 -47.5t72 -60.5 t30 -76.5q0 -63 -57 -113t-176 -68q117 -56 117 -121q0 -42 -52 -72t-151 -40z" glyph-name="Scedilla" unicode="Ş"/><glyph d="M183 -231l-7 85q110 14 110 41q0 29 -89 75l11 25q-51 -3 -115 0l4 95q259 -17 259 49q0 19 -27.5 37t-66.5 33.5t-78 34t-66.5 46.5t-27.5 63q0 73 86 118t267 32l4 -96q-242 21 -242 -41q0 -18 27.5 -36t66.5 -35t78.5 -37t67 -49t27.5 -64q0 -53 -47.5 -91.5 t-152.5 -52.5q114 -56 114 -120q0 -42 -52 -72t-151 -40z" glyph-name="scedilla" unicode="ş"/><glyph d="M298 681h-7l-184 140l69 66l127 -102l124 101l53 -52zM80 96q149 -11 218 9.5t69 62.5q0 28 -30 53.5t-72.5 48l-84.5 46.5t-72 58t-30 74q0 79 92.5 133t271.5 44l6 -103q-99 8 -154.5 1t-76 -21t-20.5 -38q0 -25 30 -50t72.5 -47.5t84.5 -47.5t72 -60.5t30 -76.5 q0 -84 -99.5 -140.5t-306.5 -48.5v103z" glyph-name="Scaron" unicode="Š"/><glyph d="M289 555h-7l-184 140l69 66l127 -102l124 101l53 -52zM443 503l4 -96q-242 21 -242 -41q0 -18 27.5 -36t66.5 -35t78.5 -37t67 -49t27.5 -64q0 -73 -89.5 -116t-289.5 -34l4 95q259 -17 259 49q0 19 -27.5 37t-66.5 33.5t-78 34t-66.5 46.5t-27.5 63q0 73 86 118t267 32z" glyph-name="scaron" unicode="š"/><glyph d="M334 524v-524h-116v524h-182l8 96h467v-96h-177zM200 -266q37 92 4 195q1 0 66 3t67 3q3 -58 -17.5 -117.5t-62.5 -101.5z" glyph-name="Tcommaaccent" unicode="Ţ"/><glyph d="M334 524v-524h-116v524h-182l8 96h467v-96h-177zM200 -266q37 92 4 195q1 0 66 3t67 3q3 -58 -17.5 -117.5t-62.5 -101.5z" glyph-name="Tcommaaccent" unicode="Ț"/><glyph d="M463 -8q-166 -3 -231.5 37t-65.5 137v247h-102l10 85h92v134l110 10v-144h188v-85h-188v-230q0 -57 41.5 -77t157.5 -22zM241 -274q37 92 4 195q1 0 66 3t67 3q3 -58 -17.5 -117.5t-62.5 -101.5z" glyph-name="tcommaaccent" unicode="ţ"/><glyph d="M463 -8q-166 -3 -231.5 37t-65.5 137v247h-102l10 85h92v134l110 10v-144h188v-85h-188v-230q0 -57 41.5 -77t157.5 -22zM241 -274q37 92 4 195q1 0 66 3t67 3q3 -58 -17.5 -117.5t-62.5 -101.5z" glyph-name="tcommaaccent" unicode="ț"/><glyph d="M281 676h-7l-184 140l69 66l127 -102l124 101l53 -52zM334 524v-524h-116v524h-182l8 96h467v-96h-177z" glyph-name="Tcaron" unicode="Ť"/><glyph d="M355 595q31 109 6 239l119 1q7 -132 -76 -255zM463 -8q-166 -3 -231.5 37t-65.5 137v247h-102l10 85h92v134l110 10v-144h188v-85h-188v-230q0 -57 41.5 -77t157.5 -22z" glyph-name="tcaron" unicode="ť"/><glyph d="M448 813v-95h-346v95h346zM270 -16q-96 0 -150 58t-54 164v414h115v-409q0 -128 97 -128q48 0 70 26.5t22 85.5v425h115v-405q0 -108 -57.5 -169.5t-157.5 -61.5z" glyph-name="Umacron" unicode="Ū"/><glyph d="M451 694v-95h-346v95h346zM378 -2l-6 56q-77 -67 -159 -67q-142 0 -142 172v335l111 7v-303q0 -63 21 -89.5t62 -26.5q51 0 100 34q-3 138 -3 382h111q0 -343 8 -495z" glyph-name="umacron" unicode="ū"/><glyph d="M276 686q-113 0 -194 146l77 45q35 -55 64 -78.5t63 -23.5t64 23.5t64 73.5l63 -32q-91 -154 -201 -154zM270 -16q-96 0 -150 58t-54 164v414h115v-409q0 -128 97 -128q48 0 70 26.5t22 85.5v425h115v-405q0 -108 -57.5 -169.5t-157.5 -61.5z" glyph-name="Ubreve" unicode="Ŭ"/><glyph d="M279 567q-113 0 -194 146l77 45q35 -55 64 -78.5t63 -23.5t64 23.5t64 73.5l63 -32q-91 -154 -201 -154zM378 -2l-6 56q-77 -67 -159 -67q-142 0 -142 172v335l111 7v-303q0 -63 21 -89.5t62 -26.5q51 0 100 34q-3 138 -3 382h111q0 -343 8 -495z" glyph-name="ubreve" unicode="ŭ"/><glyph d="M275 890q58 0 96 -31t38 -75q0 -49 -37 -80t-97 -31q-59 0 -96.5 30.5t-37.5 76.5q0 47 37 78.5t97 31.5zM270 -16q-96 0 -150 58t-54 164v414h115v-409q0 -128 97 -128q48 0 70 26.5t22 85.5v425h115v-405q0 -108 -57.5 -169.5t-157.5 -61.5z" glyph-name="Uring" unicode="Ů"/><glyph d="M277 771q58 0 96 -31t38 -75q0 -49 -37 -80t-97 -31q-59 0 -96.5 30.5t-37.5 76.5q0 47 37 78.5t97 31.5zM378 -2l-6 56q-77 -67 -159 -67q-142 0 -142 172v335l111 7v-303q0 -63 21 -89.5t62 -26.5q51 0 100 34q-3 138 -3 382h111q0 -343 8 -495z" glyph-name="uring" unicode="ů"/><glyph d="M114 719q61 92 104 201l106 -50q-68 -102 -158 -184zM324 717q62 94 101 196l111 -44q-70 -105 -159 -184zM270 -16q-96 0 -150 58t-54 164v414h115v-409q0 -128 97 -128q48 0 70 26.5t22 85.5v425h115v-405q0 -108 -57.5 -169.5t-157.5 -61.5z" glyph-name="Uhungarumlaut" unicode="Ű"/><glyph d="M117 600q61 92 104 201l106 -50q-68 -102 -158 -184zM327 598q62 94 101 196l111 -44q-70 -105 -159 -184zM378 -2l-6 56q-77 -67 -159 -67q-142 0 -142 172v335l111 7v-303q0 -63 21 -89.5t62 -26.5q51 0 100 34q-3 138 -3 382h111q0 -343 8 -495z" glyph-name="uhungarumlaut" unicode="ű"/><glyph d="M370 -224q-205 10 -205 101q0 55 83 108q-87 8 -134.5 65t-47.5 156v414h115v-409q0 -128 97 -128q48 0 70 26.5t22 85.5v425h115v-405q0 -71 -24 -118t-75 -83l-30.5 -21l-26.5 -18.5l-20.5 -15t-17 -13.5t-11 -11.5t-7.5 -12t-2 -11.5q0 -38 109 -48z" glyph-name="Uogonek" unicode="Ų"/><glyph d="M459 -221q-204 10 -204 102q0 61 122 128l-7 66q-75 -88 -158 -88q-141 0 -141 172v335l111 7v-303q0 -63 20.5 -89.5t60.5 -26.5q52 0 102 55q-3 135 -3 361h111q0 -343 8 -495q-121 -53 -121 -92q0 -36 109 -44z" glyph-name="uogonek" unicode="ų"/><glyph d="M397 683l-127 102l-124 -101l-54 51l182 153h7l184 -140zM353 0l-81 297l-77 -297h-110q-27 223 -46 620h111q2 -53 11 -250t11 -219h4l71 283h61l76 -283h3q2 14 5.5 115.5l7.5 216.5t5 137h107q-19 -383 -47 -620h-112z" glyph-name="Wcircumflex" unicode="Ŵ"/><glyph d="M394 561l-127 102l-124 -101l-54 51l182 153h7l184 -140zM353 0l-81 247l-78 -247h-97q-34 204 -48 498h107q3 -97 15 -366h4l37.5 117.5t32.5 99.5h64l73 -219h3q10 264 13 368h104q-14 -260 -49 -498h-100z" glyph-name="wcircumflex" unicode="ŵ"/><glyph d="M396 686l-127 102l-124 -101l-54 51l182 153h7l184 -140zM334 0h-116v204l-198 414l122 4l137 -309l133 307h118l-196 -414v-206z" glyph-name="Ycircumflex" unicode="Ŷ"/><glyph d="M400 565l-127 102l-124 -101l-54 51l182 153h7l184 -140zM71 -177l-9 100q92 13 124.5 29.5t53.5 65.5l-19 7q-56 125 -188 469l113 8q121 -324 140 -370h10q13 39 38.5 126l46.5 156.5t27 83.5h107q-77 -240 -140 -411q-54 -151 -112 -201.5t-192 -62.5z" glyph-name="ycircumflex" unicode="ŷ"/><glyph d="M445 698h-112l2 140h113zM223 698h-113l2 140h114zM334 0h-116v204l-198 414l122 4l137 -309l133 307h118l-196 -414v-206z" glyph-name="Ydieresis" unicode="Ÿ"/><glyph d="M169 730q44 29 105 81.5t100 95.5l82 -84q-47 -38 -123.5 -79t-135.5 -63zM486 0h-423v97l298 425l-296 -2l8 100h413v-97l-297 -425l305 2z" glyph-name="Zacute" unicode="Ź"/><glyph d="M159 608q44 29 105 81.5t100 95.5l82 -84q-47 -38 -123.5 -79t-135.5 -63zM482 0h-414v94l285 309l-285 -3l9 98h403v-93l-284 -310l294 4z" glyph-name="zacute" unicode="ź"/><glyph d="M347 695h-115l4 140h116zM486 0h-423v97l298 425l-296 -2l8 100h413v-97l-297 -425l305 2z" glyph-name="Zdotaccent" unicode="Ż"/><glyph d="M336 573h-115l4 140h116zM482 0h-414v94l285 309l-285 -3l9 98h403v-93l-284 -310l294 4z" glyph-name="zdotaccent" unicode="ż"/><glyph d="M297 676h-7l-184 140l69 66l127 -102l124 101l53 -52zM486 0h-423v97l298 425l-296 -2l8 100h413v-97l-297 -425l305 2z" glyph-name="Zcaron" unicode="Ž"/><glyph d="M287 554h-7l-184 140l69 66l127 -102l124 101l53 -52zM482 0h-414v94l285 309l-285 -3l9 98h403v-93l-284 -310l294 4z" glyph-name="zcaron" unicode="ž"/><glyph d="M155 973q44 29 105 81.5t100 95.5l82 -84q-47 -38 -123.5 -79t-135.5 -63zM273 890q58 0 96 -31t38 -75q0 -49 -37 -80t-97 -31q-59 0 -96.5 30.5t-37.5 76.5q0 47 37 78.5t97 31.5zM408 -4l-42 176h-184l-41 -172h-114q104 403 169 621h159q81 -274 169 -617zM270 527 l-68 -271h144l-68 271h-8z" glyph-name="Aringacute" unicode="Ǻ"/><glyph d="M153 860q44 29 105 81.5t100 95.5l82 -84q-47 -38 -123.5 -79t-135.5 -63zM271 775q58 0 96 -31t38 -75q0 -49 -37 -80t-97 -31q-59 0 -96.5 30.5t-37.5 76.5q0 47 37 78.5t97 31.5zM253 73q57 0 114 39q-1 11 -3 103q-109 11 -152 -8t-43 -64q0 -33 22.5 -51.5 t61.5 -18.5zM381 -3q-3 12 -9 60q-72 -70 -163 -70q-68 0 -109 35t-41 95q0 80 77 128.5t227 42.5q-4 72 -58.5 96.5t-216.5 29.5l11 94q152 -3 232 -28t111.5 -79t31.5 -154q0 -121 9 -245z" glyph-name="aringacute" unicode="ǻ"/><glyph d="M202 730q44 29 105 81.5t100 95.5l82 -84q-47 -38 -123.5 -79t-135.5 -63zM253 524l-77 -275h82v275h-5zM258 0v165h-106l-46 -165h-108q25 92 56 195l71 231l60 194h330v-96h-162v-170h133v-84h-133v-174h168l-8 -96h-255z" glyph-name="AEacute" unicode="Ǽ"/><glyph d="M158 609q44 29 105 81.5t100 95.5l82 -84q-47 -38 -123.5 -79t-135.5 -63zM506 -7q-186 -3 -244 68q-51 -68 -125 -68q-51 0 -80.5 33.5t-29.5 93.5q0 164 196 167q-2 72 -34.5 95t-141.5 28l8 93q92 -5 140.5 -20.5t70.5 -51.5q41 75 120 75q74 0 109 -74t26 -208 l-205 -5q1 -53 14.5 -79t55.5 -39.5t128 -15.5zM372 414q-30 0 -42 -28.5t-14 -99.5l104 2q-2 126 -48 126zM179 79q33 0 57 30q-13 42 -13 112q-50 2 -71.5 -17t-21.5 -58q0 -67 49 -67z" glyph-name="aeacute" unicode="ǽ"/><glyph d="M157 738q44 29 105 81.5t100 95.5l82 -84q-47 -38 -123.5 -79t-135.5 -63zM157 318q0 -83 15 -137l173 326q-29 35 -74 35q-114 0 -114 -224zM279 78q114 0 114 224q0 84 -15 138l-174 -326q28 -36 75 -36zM261 -16q-59 0 -102 24l-27 -51l-71 36l38 69q-59 79 -59 230 q0 165 66.5 254.5t182.5 89.5q57 0 104 -25l26 52l71 -36l-38 -71q58 -81 58 -228q0 -165 -66.5 -254.5t-182.5 -89.5z" glyph-name="Oslashacute" unicode="Ǿ"/><glyph d="M158 614q44 29 105 81.5t100 95.5l82 -84q-47 -38 -123.5 -79t-135.5 -63zM159 258q0 -62 15 -103l169 242q-31 26 -71 26q-52 0 -82.5 -42.5t-30.5 -122.5zM279 74q53 0 83.5 42.5t30.5 123.5q0 61 -15 100l-169 -240q29 -26 70 -26zM259 -15q-59 0 -104 27l-36 -51 l-63 42l42 59q-50 67 -50 175q0 119 71 197.5t172 78.5q63 0 107 -28l36 51l64 -42l-43 -61q47 -66 47 -173q0 -122 -70.5 -198.5t-172.5 -76.5z" glyph-name="oslashacute" unicode="ǿ"/><glyph d="M80 96q149 -11 218 9.5t69 62.5q0 28 -30 53.5t-72.5 48l-84.5 46.5t-72 58t-30 74q0 79 92.5 133t271.5 44l6 -103q-99 8 -154.5 1t-76 -21t-20.5 -38q0 -25 30 -50t72.5 -47.5t84.5 -47.5t72 -60.5t30 -76.5q0 -84 -99.5 -140.5t-306.5 -48.5v103zM197 -276 q37 92 4 195q1 0 66 3t67 3q3 -58 -17.5 -117.5t-62.5 -101.5z" glyph-name="Scommaaccent" unicode="Ș"/><glyph d="M443 503l4 -96q-242 21 -242 -41q0 -18 27.5 -36t66.5 -35t78.5 -37t67 -49t27.5 -64q0 -73 -89.5 -116t-289.5 -34l4 95q259 -17 259 49q0 19 -27.5 37t-66.5 33.5t-78 34t-66.5 46.5t-27.5 63q0 73 86 118t267 32zM198 -275q37 92 4 195q1 0 66 3t67 3 q3 -58 -17.5 -117.5t-62.5 -101.5z" glyph-name="scommaaccent" unicode="ș"/><glyph d="M251 -13q-104 0 -153.5 76t-35.5 207l320 8q-9 76 -74.5 105.5t-231.5 33.5l11 93q95 1 165.5 -9.5t116.5 -31t74 -52.5t39 -70t11 -89q0 -114 -71.5 -192.5t-170.5 -78.5zM271 78q105 0 112 135q-23 -1 -62 -2t-86 -2.5t-67 -2.5q3 -128 103 -128z" glyph-name="schwa" unicode="ə"/><glyph d="M393 561l-127 102l-124 -101l-54 51l182 153h7l184 -140z" glyph-name="circumflex" unicode="ˆ"/><glyph d="M279 554h-7l-184 140l69 66l127 -102l124 101l53 -52z" glyph-name="caron" unicode="ˇ"/><glyph d="M272 564q-113 0 -194 146l77 45q35 -55 64 -78.5t63 -23.5t64 23.5t64 73.5l63 -32q-91 -154 -201 -154z" glyph-name="breve" unicode="˘"/><glyph d="M330 573h-115l4 140h116z" glyph-name="dotaccent" unicode="˙"/><glyph d="M283 768q58 0 96 -31t38 -75q0 -49 -37 -80t-97 -31q-59 0 -96.5 30.5t-37.5 76.5q0 47 37 78.5t97 31.5z" glyph-name="ring" unicode="˚"/><glyph d="M353 43l29 -43q-121 -53 -121 -92q0 -35 109 -45l-10 -87q-205 10 -205 101q0 78 198 166z" glyph-name="ogonek" unicode="˛"/><glyph d="M345 568q-27 0 -56.5 21.5t-54 43t-39.5 21.5q-29 0 -69 -78l-57 27q27 64 63.5 102.5t75.5 38.5q27 0 56.5 -22t53.5 -43.5t39 -21.5q29 0 69 79l58 -27q-28 -65 -64 -103t-75 -38z" glyph-name="tilde" unicode="˜"/><glyph d="M121 597q61 92 104 201l106 -50q-68 -102 -158 -184zM331 595q62 94 101 196l111 -44q-70 -105 -159 -184z" glyph-name="hungarumlaut" unicode="˝"/><glyph d="M200 -266q37 92 4 195q1 0 66 3t67 3q3 -58 -17.5 -117.5t-62.5 -101.5z" glyph-name="commaaccent" unicode="̦"/><glyph d="M391 726l-31 -48q-144 61 -255 138l75 90q98 -96 211 -180zM353 0l-81 297l-77 -297h-110q-27 223 -46 620h111q2 -53 11 -250t11 -219h4l71 283h61l76 -283h3q2 14 5.5 115.5l7.5 216.5t5 137h107q-19 -383 -47 -620h-112z" glyph-name="Wgrave" unicode="Ẁ"/><glyph d="M388 604l-31 -48q-144 61 -255 138l75 90q98 -96 211 -180zM353 0l-81 247l-78 -247h-97q-34 204 -48 498h107q3 -97 15 -366h4l37.5 117.5t32.5 99.5h64l73 -219h3q10 264 13 368h104q-14 -260 -49 -498h-100z" glyph-name="wgrave" unicode="ẁ"/><glyph d="M160 730q44 29 105 81.5t100 95.5l82 -84q-47 -38 -123.5 -79t-135.5 -63zM353 0l-81 297l-77 -297h-110q-27 223 -46 620h111q2 -53 11 -250t11 -219h4l71 283h61l76 -283h3q2 14 5.5 115.5l7.5 216.5t5 137h107q-19 -383 -47 -620h-112z" glyph-name="Wacute" unicode="Ẃ"/><glyph d="M157 608q44 29 105 81.5t100 95.5l82 -84q-47 -38 -123.5 -79t-135.5 -63zM353 0l-81 247l-78 -247h-97q-34 204 -48 498h107q3 -97 15 -366h4l37.5 117.5t32.5 99.5h64l73 -219h3q10 264 13 368h104q-14 -260 -49 -498h-100z" glyph-name="wacute" unicode="ẃ"/><glyph d="M446 695h-112l2 140h113zM224 695h-113l2 140h114zM353 0l-81 297l-77 -297h-110q-27 223 -46 620h111q2 -53 11 -250t11 -219h4l71 283h61l76 -283h3q2 14 5.5 115.5l7.5 216.5t5 137h107q-19 -383 -47 -620h-112z" glyph-name="Wdieresis" unicode="Ẅ"/><glyph d="M443 573h-112l2 140h113zM221 573h-113l2 140h114zM353 0l-81 247l-78 -247h-97q-34 204 -48 498h107q3 -97 15 -366h4l37.5 117.5t32.5 99.5h64l73 -219h3q10 264 13 368h104q-14 -260 -49 -498h-100z" glyph-name="wdieresis" unicode="ẅ"/><glyph d="M390 729l-31 -48q-144 61 -255 138l75 90q98 -96 211 -180zM334 0h-116v204l-198 414l122 4l137 -309l133 307h118l-196 -414v-206z" glyph-name="Ygrave" unicode="Ỳ"/><glyph d="M394 608l-31 -48q-144 61 -255 138l75 90q98 -96 211 -180zM71 -177l-9 100q92 13 124.5 29.5t53.5 65.5l-19 7q-56 125 -188 469l113 8q121 -324 140 -370h10q13 39 38.5 126l46.5 156.5t27 83.5h107q-77 -240 -140 -411q-54 -151 -112 -201.5t-192 -62.5z" glyph-name="ygrave" unicode="ỳ"/><glyph d="M485 340l-9 -84h-406v84h415z" glyph-name="endash" unicode="–"/><glyph d="M501 340l-7 -84h-439v84h446z" glyph-name="emdash" unicode="—"/><glyph d="M371 674q-43 -56 -48.5 -136.5t32.5 -160.5l-142 -8q-23 57 -14.5 116.5t38.5 112t75 93.5z" glyph-name="quoteleft" unicode="‘"/><glyph d="M191 373q43 55 48.5 135.5t-31.5 160.5l141 8q30 -89 1 -174t-99 -148z" glyph-name="quoteright" unicode="’"/><glyph d="M184 -155q44 57 49 138.5t-32 158.5l141 7q23 -55 14.5 -114t-38.5 -112t-75 -95z" glyph-name="quotesinglbase" unicode="‚"/><glyph d="M469 674q-36 -56 -37.5 -138t31.5 -159l-137 -8q-26 83 -1 170.5t89 151.5zM251 674q-37 -57 -41 -139.5t27 -158.5l-136 -7q-25 82 2 171t93 151z" glyph-name="quotedblleft" unicode="“"/><glyph d="M89 371q36 56 38 138.5t-31 159.5l136 7q27 -83 2 -170.5t-90 -151.5zM309 372q37 56 41 138.5t-27 158.5l137 7q24 -82 -3.5 -171t-93.5 -150z" glyph-name="quotedblright" unicode="”"/><glyph d="M85 -155q36 56 37.5 138t-31.5 159l138 7q26 -82 1 -170.5t-90 -151.5zM303 -155q38 56 41.5 139t-26.5 159l137 6q24 -82 -3.5 -171t-94.5 -150z" glyph-name="quotedblbase" unicode="„"/><glyph d="M309 135l-68 -34l-17 9l1 352l-160 2l5 89l155 -3v149l106 -1l-2 -149l162 -3l-5 -88l-160 2z" glyph-name="dagger" unicode="†"/><glyph d="M310 83l-68 -34l-17 9v206l-167 2l5 85l162 -3v118l-160 2l5 85l155 -3v149l106 -1l-2 -149l162 -3l-5 -84l-160 2l-5 -117l164 -3l-6 -84l-161 2z" glyph-name="daggerdbl" unicode="‡"/><glyph d="M419 300q0 -64 -42 -103.5t-104 -39.5q-61 0 -101.5 39t-40.5 101q0 63 42 102.5t104 39.5t102 -38.5t40 -100.5z" glyph-name="bullet" unicode="•"/><glyph d="M512 0h-115l6 147h115zM329 0h-115l6 147h115zM146 0h-115l6 147h115z" glyph-name="ellipsis" unicode="…"/><glyph d="M355 -19l-235 213l7 109l234 215l74 -78l-226 -190l220 -191z" glyph-name="guilsinglleft" unicode="‹"/><glyph d="M190 -19l-74 78l226 190l-220 192l74 77l235 -213l-7 -109z" glyph-name="guilsinglright" unicode="›"/><glyph d="M117 -160l-94 38l404 880l94 -39z" glyph-name="fraction" unicode="⁄"/><glyph d="M268 315q-80 0 -124.5 53.5t-44.5 146.5q0 95 50 154.5t132 59.5q80 0 124 -53t44 -147q0 -95 -49.5 -154.5t-131.5 -59.5zM273 658q-85 0 -85 -130q0 -67 22.5 -104t66.5 -37q84 0 84 130q0 67 -22.5 104t-65.5 37z" glyph-name="zero.sup" unicode="⁰"/><glyph d="M448 399l-47 1l1 -75h-83l1 75l-198 -1q-7 140 45 327l95 -6q-65 -242 -66 -249l125 -1l-2 121l83 7l-2 -128l54 1z" glyph-name="four.sup" unicode="⁴"/><glyph d="M429 455q0 -58 -73.5 -95.5t-219.5 -45.5l-5 79q118 7 167 21t49 39q0 45 -206 59l15 208h262l-8 -75h-182l-6 -73q207 -21 207 -117z" glyph-name="five.sup" unicode="⁵"/><glyph d="M274 315q-74 0 -118 42.5t-44 121.5q0 178 246 257l29 -72q-94 -30 -135.5 -60t-51.5 -75q48 36 104 39.5t95 -27t39 -86.5q0 -61 -48 -100.5t-116 -39.5zM282 385q32 0 52.5 17t20.5 47q0 46 -48.5 58t-110.5 -20q0 -50 23.5 -76t62.5 -26z" glyph-name="six.sup" unicode="⁶"/><glyph d="M260 318l-91 9q66 157 179 312l-2 5h-222l7 76h307v-74q-116 -170 -178 -328z" glyph-name="seven.sup" unicode="⁷"/><glyph d="M267 315q-70 0 -111.5 28t-41.5 74q0 67 92 103q-85 46 -85 100q0 43 43 76t116 33q64 0 106.5 -27.5t42.5 -71.5q0 -62 -87 -100q45 -23 69.5 -46.5t24.5 -54.5q0 -47 -46 -80.5t-123 -33.5zM209 625q0 -20 20.5 -35.5t62.5 -35.5q53 26 53 62q0 22 -18.5 36t-51.5 14 q-30 0 -48 -12t-18 -29zM274 379q33 0 53 13t20 32q0 10 -6.5 19t-22.5 19t-26.5 15.5t-35.5 17.5q-56 -24 -56 -63q0 -23 19.5 -38t54.5 -15z" glyph-name="eight.sup" unicode="⁸"/><glyph d="M191 307l-29 73q95 31 136 60.5t51 73.5q-48 -36 -104 -39.5t-95 27.5t-39 87q0 61 48 100t116 39q74 0 118.5 -42.5t44.5 -120.5q0 -87 -62 -153t-185 -105zM194 594q0 -46 48.5 -58t110.5 20q1 51 -23 77t-63 26q-32 0 -52.5 -17.5t-20.5 -47.5z" glyph-name="nine.sup" unicode="⁹"/><glyph d="M268 -160q-80 0 -124.5 53.5t-44.5 146.5q0 95 50 154.5t132 59.5q80 0 124 -53t44 -147q0 -95 -49.5 -154.5t-131.5 -59.5zM273 183q-85 0 -85 -130q0 -67 22.5 -104t66.5 -37q84 0 84 130q0 67 -22.5 104t-65.5 37z" glyph-name="zero.inf" unicode="₀"/><glyph d="M436 -150h-306v73h119v196l-111 -3l-2 65l113 13v59l86 7v-337h108z" glyph-name="one.inf" unicode="₁"/><glyph d="M431 -150h-305l-9 69q114 70 163.5 112t49.5 79q0 32 -43 47.5t-155 19.5l6 77q281 1 281 -120q0 -51 -44.5 -99.5t-138.5 -109.5h195v-75z" glyph-name="two.inf" unicode="₂"/><glyph d="M136 -161l-6 78q216 5 216 48q0 41 -177 58v44l148 102v3l-180 -2v75h277l7 -69l-154 -106q164 -26 164 -104q0 -55 -71 -89.5t-224 -37.5z" glyph-name="three.inf" unicode="₃"/><glyph d="M448 -76l-47 1l1 -75h-83l1 75l-198 -1q-7 140 45 327l95 -6q-65 -242 -66 -249l125 -1l-2 121l83 7l-2 -128l54 1z" glyph-name="four.inf" unicode="₄"/><glyph d="M429 -20q0 -58 -73.5 -95.5t-219.5 -45.5l-5 79q118 7 167 21t49 39q0 45 -206 59l15 208h262l-8 -75h-182l-6 -73q207 -21 207 -117z" glyph-name="five.inf" unicode="₅"/><glyph d="M274 -160q-74 0 -118 42.5t-44 121.5q0 178 246 257l29 -72q-94 -30 -135.5 -60t-51.5 -75q48 36 104 39.5t95 -27t39 -86.5q0 -61 -48 -100.5t-116 -39.5zM282 -90q32 0 52.5 17t20.5 47q0 46 -48.5 58t-110.5 -20q0 -50 23.5 -76t62.5 -26z" glyph-name="six.inf" unicode="₆"/><glyph d="M260 -157l-91 9q66 157 179 312l-2 5h-222l7 76h307v-74q-116 -170 -178 -328z" glyph-name="seven.inf" unicode="₇"/><glyph d="M267 -160q-70 0 -111.5 28t-41.5 74q0 67 92 103q-85 46 -85 100q0 43 43 76t116 33q64 0 106.5 -27.5t42.5 -71.5q0 -62 -87 -100q45 -23 69.5 -46.5t24.5 -54.5q0 -47 -46 -80.5t-123 -33.5zM209 150q0 -20 20.5 -35.5t62.5 -35.5q53 27 53 62q0 22 -18.5 36t-51.5 14 q-30 0 -48 -12t-18 -29zM274 -96q33 0 53 13t20 32q0 10 -6.5 19t-22.5 19t-26.5 15.5t-35.5 17.5q-56 -24 -56 -63q0 -23 19.5 -38t54.5 -15z" glyph-name="eight.inf" unicode="₈"/><glyph d="M191 -168l-29 73q95 31 136 60.5t51 73.5q-48 -36 -104 -39.5t-95 27.5t-39 87q0 61 48 100t116 39q74 0 118.5 -42.5t44.5 -120.5q0 -87 -62 -153t-185 -105zM194 119q0 -46 48.5 -58t110.5 20q1 51 -23 77t-63 26q-32 0 -52.5 -17.5t-20.5 -47.5z" glyph-name="nine.inf" unicode="₉"/><glyph d="M331 137l31 351q-39 -6 -66 -13l-29 -321q23 -8 64 -17zM156 315q0 -90 55 -132l24 269q-79 -42 -79 -137zM305 -74l11 115q-24 5 -57 14l-12 -129h-76l16 156q-68 33 -99.5 85.5t-31.5 131.5q0 177 173 250l11 144h76l-11 -119q30 8 59 12l10 107h75l-9 -98q20 2 60 4 l6 -100q-56 -2 -84 -4l-33 -368q48 -7 91 -11l-21 -95q-27 2 -70 8l-9 -103h-75z" glyph-name="colonmonetary" unicode="₡"/><glyph d="M179 424l1 -198h96l-91 198h-6zM380 188h5l-1 194h-92zM380 0l-71 154h-129l1 -154h-90v154h-64v88h64v124h-64v88h64v166h93l75 -165h125l-1 165h87v-166h62v-88h-62v-124h62v-88h-62v-154h-90z" glyph-name="naira" unicode="₦"/><glyph d="M227 -4l-53 219l-36 -2l5 -213h-86v618q126 18 187.5 -30t61.5 -143q0 -100 -61 -175l71 -262zM521 506l3 -88q-103 9 -103 -45q0 -21 17.5 -50.5t39 -56t39 -64.5t17.5 -73q0 -61 -46 -102t-147 -35l-4 89q104 -8 104 50q0 23 -17 53t-37.5 55t-37.5 61.5t-17 72.5 q0 60 48.5 100t140.5 33z" glyph-name="rupee" unicode="₨"/><glyph d="M486 70l-14 -91q-155 15 -235 65t-107 139h-74v79h61q-2 30 -2 48q0 22 1 32h-60v79h72q23 84 100.5 139t232.5 83l17 -106q-125 -18 -179.5 -45t-70.5 -79h210l-4 -71h-216q-1 -9 -1 -29q0 -33 2 -48h213l-4 -71h-194q21 -49 78.5 -78t173.5 -46z" glyph-name="Euro" unicode="€"/><glyph d="M195 436h179q-11 57 -57 83.5t-122 17.5v-101zM195 264q159 -17 180 93h-180v-93zM536 350h-65q-41 -157 -276 -182v-168h-102v350h-67v89h67v180q179 29 277.5 -19t107.5 -161h58v-89z" glyph-name="peso" unicode="₱"/><glyph d="M486 45l-84 -62q-128 96 -184 129t-144 57l17 81q175 9 203 96h-212v76h212q-28 87 -214 107l6 91h401l-7 -94h-162q67 -37 83 -104h78v-76h-82q-16 -45 -63.5 -80.5t-121.5 -52.5q50 -17 104.5 -51.5t169.5 -116.5z" glyph-name="rupeeindia" unicode="₹"/><glyph d="M403 442q0 106 -181 94v-195q100 2 140.5 23t40.5 78zM413 110h-191v-110h-107v110h-73v81h73v67h-73v82h73v279q394 47 394 -164q0 -91 -72.5 -137.5t-214.5 -55.5v-74h199z" glyph-name="ruble" unicode="₽"/><glyph d="M411 204q-50 0 -78 50t-28 148q0 103 34.5 163.5t90.5 60.5q50 0 77.5 -50t27.5 -148q0 -104 -34 -164t-90 -60zM205 0l-93 373h-3l8 -373h-90v620h80l88 -337h2l-7 337h89v-620h-74zM526 87h-213v77h213v-77z" glyph-name="numero" unicode="№"/><glyph d="M36 305q0 138 66 223t169 85q106 0 174.5 -80.5t68.5 -218.5t-72 -222.5t-177 -84.5t-167 79.5t-62 218.5zM99 308q0 -115 46 -179t123 -64q81 0 132 64.5t51 180.5q0 114 -52 179.5t-130 65.5q-79 0 -124.5 -65t-45.5 -182zM262 151h-68v308q189 25 189 -103 q0 -48 -33 -80.5t-88 -43.5v-81z" glyph-name="published" unicode="℗"/><glyph d="M372 345l-49 166h-3l1 -225h-64v334h71l56 -179h3l54 179h71v-334h-65v225h-2l-48 -166h-25zM32 346q118 -7 118 36q0 17 -29.5 37.5t-59 47t-29.5 58.5q0 40 42 71t125 27l3 -61q-103 5 -103 -31q0 -14 18.5 -30.5t40.5 -30.5t40.5 -37t18.5 -48q0 -43 -46 -73t-139 -28 v62z" glyph-name="servicemark" unicode="℠"/><glyph d="M157 562v-275h-64v275h-76l3 58h204v-58h-67zM372 345l-49 166h-3l1 -225h-64v334h71l56 -179h3l54 179h71v-334h-65v225h-2l-48 -166h-25z" glyph-name="trademark" unicode="™"/><glyph d="M238 6l-3 -6h-190v89h83q-63 158 -63 284q0 119 56.5 190t158.5 71q99 0 153 -70t54 -188q0 -129 -64 -287h83v-89h-191l-1 6q64 205 64 345q0 88 -26.5 135t-75.5 47q-51 0 -78 -46.5t-27 -132.5q0 -134 67 -348z" glyph-name="Omega" unicode="Ω"/><glyph d="M436 425h-306v73h119v196l-111 -3l-2 65l113 13v59l86 7v-337h108zM60 269v72h430v-72h-430zM136 -221l-6 78q216 5 216 48q0 41 -177 58v44l148 102v3l-180 -2v75h277l7 -69l-154 -106q164 -26 164 -104q0 -55 -71 -89.5t-224 -37.5z" glyph-name="onethird" unicode="⅓"/><glyph d="M431 425h-305l-9 69q114 70 163.5 112t49.5 79q0 32 -43 47.5t-155 19.5l6 77q281 1 281 -120q0 -51 -44.5 -99.5t-138.5 -109.5h195v-75zM60 269v72h430v-72h-430zM136 -221l-6 78q216 5 216 48q0 41 -177 58v44l148 102v3l-180 -2v75h277l7 -69l-154 -106 q164 -26 164 -104q0 -55 -71 -89.5t-224 -37.5z" glyph-name="twothirds" unicode="⅔"/><glyph d="M436 425h-306v73h119v196l-111 -3l-2 65l113 13v59l86 7v-337h108zM60 269v72h430v-72h-430zM429 -80q0 -58 -73.5 -95.5t-219.5 -45.5l-5 79q118 7 167 21t49 39q0 45 -206 59l15 208h262l-8 -75h-182l-6 -73q207 -21 207 -117z" glyph-name="onefifth" unicode="⅕"/><glyph d="M431 425h-305l-9 69q114 70 163.5 112t49.5 79q0 32 -43 47.5t-155 19.5l6 77q281 1 281 -120q0 -51 -44.5 -99.5t-138.5 -109.5h195v-75zM60 269v72h430v-72h-430zM429 -80q0 -58 -73.5 -95.5t-219.5 -45.5l-5 79q118 7 167 21t49 39q0 45 -206 59l15 208h262l-8 -75 h-182l-6 -73q207 -21 207 -117z" glyph-name="twofifths" unicode="⅖"/><glyph d="M136 414l-6 78q216 5 216 48q0 41 -177 58v44l148 102v3l-180 -2v75h277l7 -69l-154 -106q164 -26 164 -104q0 -55 -71 -89.5t-224 -37.5zM60 269v72h430v-72h-430zM429 -80q0 -58 -73.5 -95.5t-219.5 -45.5l-5 79q118 7 167 21t49 39q0 45 -206 59l15 208h262l-8 -75 h-182l-6 -73q207 -21 207 -117z" glyph-name="threefifths" unicode="⅗"/><glyph d="M448 499l-47 1l1 -75h-83l1 75l-198 -1q-7 140 45 327l95 -6q-65 -242 -66 -249l125 -1l-2 121l83 7l-2 -128l54 1zM60 269v72h430v-72h-430zM429 -80q0 -58 -73.5 -95.5t-219.5 -45.5l-5 79q118 7 167 21t49 39q0 45 -206 59l15 208h262l-8 -75h-182l-6 -73 q207 -21 207 -117z" glyph-name="fourfifths" unicode="⅘"/><glyph d="M436 425h-306v73h119v196l-111 -3l-2 65l113 13v59l86 7v-337h108zM60 269v72h430v-72h-430zM274 -220q-74 0 -118 42.5t-44 121.5q0 178 246 257l29 -72q-94 -30 -135.5 -60t-51.5 -75q48 36 104 39.5t95 -27t39 -86.5q0 -61 -48 -100.5t-116 -39.5zM282 -150 q32 0 52.5 17t20.5 47q0 46 -48.5 58t-110.5 -20q0 -50 23.5 -76t62.5 -26z" glyph-name="onesixth" unicode="⅙"/><glyph d="M429 555q0 -58 -73.5 -95.5t-219.5 -45.5l-5 79q118 7 167 21t49 39q0 45 -206 59l15 208h262l-8 -75h-182l-6 -73q207 -21 207 -117zM60 269v72h430v-72h-430zM274 -220q-74 0 -118 42.5t-44 121.5q0 178 246 257l29 -72q-94 -30 -135.5 -60t-51.5 -75q48 36 104 39.5 t95 -27t39 -86.5q0 -61 -48 -100.5t-116 -39.5zM282 -150q32 0 52.5 17t20.5 47q0 46 -48.5 58t-110.5 -20q0 -50 23.5 -76t62.5 -26z" glyph-name="fivesixths" unicode="⅚"/><glyph d="M436 425h-306v73h119v196l-111 -3l-2 65l113 13v59l86 7v-337h108zM60 269v72h430v-72h-430zM267 -220q-70 0 -111.5 28t-41.5 74q0 67 92 103q-85 46 -85 100q0 43 43 76t116 33q64 0 106.5 -27.5t42.5 -71.5q0 -62 -87 -100q45 -23 69.5 -46.5t24.5 -54.5 q0 -47 -46 -80.5t-123 -33.5zM209 90q0 -20 20.5 -35.5t62.5 -35.5q53 27 53 62q0 22 -18.5 36t-51.5 14q-30 0 -48 -12t-18 -29zM274 -156q33 0 53 13t20 32q0 10 -6.5 19t-22.5 19t-26.5 15.5t-35.5 17.5q-56 -24 -56 -63q0 -23 19.5 -38t54.5 -15z" glyph-name="oneeighth" unicode="⅛"/><glyph d="M136 414l-6 78q216 5 216 48q0 41 -177 58v44l148 102v3l-180 -2v75h277l7 -69l-154 -106q164 -26 164 -104q0 -55 -71 -89.5t-224 -37.5zM60 269v72h430v-72h-430zM267 -220q-70 0 -111.5 28t-41.5 74q0 67 92 103q-85 46 -85 100q0 43 43 76t116 33q64 0 106.5 -27.5 t42.5 -71.5q0 -62 -87 -100q45 -23 69.5 -46.5t24.5 -54.5q0 -47 -46 -80.5t-123 -33.5zM209 90q0 -20 20.5 -35.5t62.5 -35.5q53 27 53 62q0 22 -18.5 36t-51.5 14q-30 0 -48 -12t-18 -29zM274 -156q33 0 53 13t20 32q0 10 -6.5 19t-22.5 19t-26.5 15.5t-35.5 17.5 q-56 -24 -56 -63q0 -23 19.5 -38t54.5 -15z" glyph-name="threeeighths" unicode="⅜"/><glyph d="M429 555q0 -58 -73.5 -95.5t-219.5 -45.5l-5 79q118 7 167 21t49 39q0 45 -206 59l15 208h262l-8 -75h-182l-6 -73q207 -21 207 -117zM60 269v72h430v-72h-430zM267 -220q-70 0 -111.5 28t-41.5 74q0 67 92 103q-85 46 -85 100q0 43 43 76t116 33q64 0 106.5 -27.5 t42.5 -71.5q0 -62 -87 -100q45 -23 69.5 -46.5t24.5 -54.5q0 -47 -46 -80.5t-123 -33.5zM209 90q0 -20 20.5 -35.5t62.5 -35.5q53 27 53 62q0 22 -18.5 36t-51.5 14q-30 0 -48 -12t-18 -29zM274 -156q33 0 53 13t20 32q0 10 -6.5 19t-22.5 19t-26.5 15.5t-35.5 17.5 q-56 -24 -56 -63q0 -23 19.5 -38t54.5 -15z" glyph-name="fiveeighths" unicode="⅝"/><glyph d="M260 418l-91 9q66 157 179 312l-2 5h-222l7 76h307v-74q-116 -170 -178 -328zM60 269v72h430v-72h-430zM267 -220q-70 0 -111.5 28t-41.5 74q0 67 92 103q-85 46 -85 100q0 43 43 76t116 33q64 0 106.5 -27.5t42.5 -71.5q0 -62 -87 -100q45 -23 69.5 -46.5t24.5 -54.5 q0 -47 -46 -80.5t-123 -33.5zM209 90q0 -20 20.5 -35.5t62.5 -35.5q53 27 53 62q0 22 -18.5 36t-51.5 14q-30 0 -48 -12t-18 -29zM274 -156q33 0 53 13t20 32q0 10 -6.5 19t-22.5 19t-26.5 15.5t-35.5 17.5q-56 -24 -56 -63q0 -23 19.5 -38t54.5 -15z" glyph-name="seveneighths" unicode="⅞"/><glyph d="M478 344v-93h-406v93h406z" glyph-name="minus" unicode="−"/><glyph d="M360 315q-34 0 -68 24t-61.5 48t-45.5 24q-17 0 -34 -24.5t-39 -73.5l-65 28q29 82 64.5 123t82.5 41q34 0 67 -24t59.5 -48t42.5 -24t31 22t37 70l66 -28q-30 -82 -61 -120t-76 -38zM360 94q-34 0 -68 24t-61.5 48t-44.5 24q-18 0 -34.5 -23.5t-38.5 -72.5l-66 27 q29 82 65 122.5t83 40.5q26 0 53 -15t44.5 -32.5t37 -32.5t33.5 -15q17 0 32 22t37 69l65 -28q-30 -82 -61 -120t-76 -38z" glyph-name="approxequal" unicode="≈"/><glyph d="M478 144h-212l-52 -143l-85 25l43 118h-100v94h134l46 126h-180v94h214l52 143l84 -26l-42 -117h98v-94h-132l-46 -126h178v-94z" glyph-name="notequal" unicode="≠"/><glyph d="M191 370v-8l274 -132l-36 -86l-354 174l2 85l343 206l44 -83zM481 101v-94h-412v94h412z" glyph-name="lessequal" unicode="≤"/><glyph d="M359 370l-273 156l44 83l344 -206l2 -85l-354 -174l-36 86l273 132v8zM69 101h412v-94h-412v94z" glyph-name="greaterequal" unicode="≥"/><glyph d="M500 700v-800h-450v800h450zM200 296q0 22 20 22q22 0 22 -29q0 -17 -14 -37q-28 26 -28 44zM249 232q17 11 31 25q22 -22 -1 -60q-22 27 -30 35zM210 139q-16 0 -27.5 12t-11.5 29q0 18 12 30q28 -26 56 -62q-12 -9 -29 -9zM301 173q15 20 35 32q10 -19 32 -19 q16 0 26.5 11.5t10.5 28.5q0 18 -10.5 28.5t-26.5 10.5q-26 0 -45 -28q-3 28 -37 28q7 10 7 25q0 21 -19.5 38.5t-51.5 17.5q-37 0 -59.5 -19.5t-22.5 -44.5q0 -28 23 -52q-61 -20 -61 -68q0 -30 23.5 -50t57.5 -20q47 0 78 34q33 -34 64 -34q25 0 42 19.5t18 51.5l-5 1 q-14 -22 -32 -22q-20 0 -47 31zM229 68l-9 -1v-7h-5v-5h5v-15q0 -10 9 -10q8 0 11 10l-4 1q-1 -5 -4 -5t-3 4v15h10v5h-10v8zM145 46q0 -16 16 -16t16 16q0 15 -16 15t-16 -15zM167 46q0 -12 -6 -12t-6 12q0 11 6 11t6 -11zM299 45q0 -10 -5 -10q-6 0 -6 10t6 10q5 0 5 -10z M179 36v-5h16v5h-3v11q0 8 6 8q4 0 4 -6v-13h-3v-5h17v5h-5v14q0 11 -9 11q-6 0 -10 -7v6h-13v-5h4v-19h-4zM108 36v-5h23v5h-7v12h3q4 0 5 -6h5v17h-5q-1 -6 -5 -6h-3v14h8q6 0 9 -10h5v15h-38v-5h6v-31h-6zM241 41v-10h5l1 3q4 -4 10 -4q10 0 10 9q0 6 -9 9t-9 5q0 3 4 3 t8 -5h5v10h-5l-1 -4q-3 4 -8 4q-11 0 -11 -9q0 -7 9 -9.5t9 -5.5t-4 -3t-9 7h-5zM279 69v-39h4l3 6q3 -6 11 -6q12 0 12 16q0 15 -12 15q-7 0 -9 -7v20h-14v-5h5zM318 24q2 2 0.5 4.5t-4.5 2.5q-5 0 -5 -5q0 -7 9 -7q8 0 13 12l10 24h4v5h-13v-5h4l-6 -15l-7 15h4v5h-18v-5 h3q9 -18 12 -25q0 -6 -6 -6zM363 0h-14v-6h5q-2 -4 -5 -7q-2 2 -5 5.5t-4 4.5q8 5 8 10q0 9 -10 9q-13 0 -13 -11q0 -5 5 -10q-10 -3 -10 -11q0 -10 12 -10q8 0 13 5q5 -5 9 -5q7 0 9 9l-3 1q-1 -4 -3 -4q-1 0 -5 4q4 4 7 10h4v6zM235 4v4q0 8 4 8l3 -1q-1 -1 -1 -3 q0 -4 5 -4v-4h-11zM367 -5q0 -21 21 -21q16 0 18 17h-6q-2 -12 -10 -12q-12 0 -12 17t10 17q7 0 11 -12h6v16h-6v-4q-5 5 -12 5q-20 0 -20 -23zM338 -1q-5 5 -5 8q0 4 4 4q5 0 5 -5t-4 -7zM270 -12h19q2 17 -14 17q-15 0 -15 -16q0 -15 16 -15q11 0 13 11h-5q-2 -6 -7 -6 q-7 0 -7 9zM200 -12h19q2 17 -14 17q-15 0 -15 -16q0 -15 16 -15q11 0 13 11h-5q-2 -6 -7 -6q-7 0 -7 9zM156 -10q0 -16 16 -16t16 16q0 15 -16 15t-16 -15zM408 -10q0 -16 16 -16t16 16q0 15 -16 15t-16 -15zM270 -8q0 9 5 9t5 -9h-10zM200 -8q0 9 5 9t5 -9h-10zM178 -10 q0 -12 -6 -12t-6 12q0 11 6 11t6 -11zM430 -10q0 -12 -6 -12t-6 12q0 11 6 11t6 -11zM222 -20v-5h17v5h-4v19h11v-19h-4v-5h17v5h-4v39l-8 -2q-4 2 -8 2q-13 0 -13 -14v-1h-5v-5h5v-19h-4zM291 -20v-5h19v5h-6v12q2 7 5 7v-1q0 -4 5 -4t5 5q0 6 -6 6t-9 -7v6h-13v-5h4v-19 h-4zM108 -20v-5h21v5h-5v14h16v-14h-5v-5h21v5h-6v31h6v5h-21v-5h5v-12h-16v12h5v5h-21v-5h6v-31h-6zM342 -18q-3 -3 -6 -3q-7 0 -7 7q0 4 3 7q2 -2 5.5 -6t4.5 -5zM453 -20q0 6 -6 6t-6 -6t6 -6t6 6z" glyph-name="hcoslug" unicode=""/><glyph d="M520 654q-126 -307 -214 -670l-97 -5l-153 349l95 41l101 -242h5q61 316 150 562z" glyph-name="check.1" unicode=""/><glyph d="M339 -10l-90 191l-100 -196l-73 24l118 250l-119 225l102 37l77 -164l143 334l108 -39l-194 -379l134 -259z" glyph-name="check.2" unicode=""/><glyph glyph-name="NUL" horiz-adv-x="0"/><glyph d="M268 -13q-108 0 -163.5 82t-55.5 231q0 151 63.5 242t170.5 91t162.5 -82t55.5 -231q0 -151 -63 -242t-170 -91zM275 543q-120 0 -120 -223q0 -114 31 -178.5t90 -64.5q119 0 119 223q0 114 -30.5 178.5t-89.5 64.5z" glyph-name="zero.alt"/><glyph d="M355 400h-152l2 140h152zM351 79h-152l2 140h153z" glyph-name="colon.alt"/><glyph d="M199 40l-167 213l5 109l166 214l79 -65l-166 -199l163 -208zM443 40l-167 213l5 109l167 214l79 -65l-168 -201l164 -206z" glyph-name="guillemotleft.cap"/><glyph d="M347 40l-79 66l168 200l-164 207l80 63l167 -212l-5 -110zM103 40l-79 66l167 200l-164 207l80 63l167 -212l-5 -110z" glyph-name="guillemotright.cap"/><glyph d="M355 40l-235 213l7 109l234 215l74 -78l-226 -190l220 -191z" glyph-name="guilsinglleft.cap"/><glyph d="M190 40l-74 78l226 190l-220 192l74 77l235 -213l-7 -109z" glyph-name="guilsinglright.cap"/><glyph d="M399 776l75 -67q-143 -116 -202.5 -210.5t-59.5 -190.5t60 -192t199 -209l-77 -69q-154 132 -223 244t-69 221q0 112 70 226t227 247z" glyph-name="parenleft.cap"/><glyph d="M152 -162l-76 68q143 115 202.5 210t59.5 190q0 96 -59.5 192t-199.5 209l77 69q155 -133 224 -244.5t69 -220.5q0 -111 -70.5 -225.5t-226.5 -247.5z" glyph-name="parenright.cap"/><glyph d="M129 -132v877h336v-89h-230v-700h235l-10 -88h-331z" glyph-name="bracketleft.cap"/><glyph d="M90 -43h226v699h-228v90h334v-878h-338z" glyph-name="bracketright.cap"/><glyph d="M447 -166q-176 57 -242.5 98.5t-66.5 98.5q0 34 23 66.5t45.5 58t22.5 42.5q0 58 -145 70l3 78q83 9 116 22t33 34q0 13 -15.5 31.5t-34 35t-34.5 41.5t-16 51q0 120 315 219l35 -90q-128 -35 -185.5 -63.5t-57.5 -57.5q0 -21 46 -71t46 -79q0 -30 -27.5 -58t-85.5 -46 q58 -16 85.5 -42.5t27.5 -58.5q0 -27 -21.5 -55l-43 -54t-21.5 -48q0 -36 55 -66t180 -68z" glyph-name="braceleft.cap"/><glyph d="M101 -166l-35 91q127 35 184.5 63t57.5 57q0 22 -45.5 71.5t-45.5 79.5t27.5 58t86.5 46q-114 30 -114 100q0 27 21.5 55l43 54t21.5 48q0 36 -55 67t-180 68l37 88q176 -56 242.5 -97.5t66.5 -98.5q0 -34 -23 -66.5t-45.5 -58t-22.5 -43.5q0 -57 145 -69l-4 -79 q-82 -8 -115 -21.5t-33 -34.5q0 -13 15.5 -31.5t34 -34.5t34 -41t15.5 -51q2 -119 -314 -220z" glyph-name="braceright.cap"/><glyph d="M36 305q0 137 66.5 222.5t168.5 85.5q106 0 174.5 -80.5t68.5 -218.5t-72 -222.5t-177 -84.5q-104 0 -166.5 79.5t-62.5 218.5zM99 308q0 -114 46.5 -178.5t122.5 -64.5q81 0 132 64.5t51 180.5q0 114 -52 179.5t-130 65.5t-124 -65.5t-46 -181.5zM313 148l-32 103 l-28 -2v-97h-68v307q101 17 144.5 -10.5t43.5 -76.5q0 -47 -38 -90l50 -126z" glyph-name="registered.alt"/><glyph d="M318 539l-54 11l3 152l98 -20zM231 539l-36 -43l-129 79l65 76zM362 463l-19 53l134 74l33 -95zM188 463l19 -53l-133 -73l-33 94zM320 388l36 43l130 -80l-66 -75zM233 388l53 -11l-1 -152l-101 19z" glyph-name="asterisk.alt"/><glyph d="M395 177h-242l2 243h242z" glyph-name="bullet.alt"/><glyph d="M193 -4l-50 232l-36 -2l6 -226h-86v618q126 18 187.5 -30t61.5 -143q0 -100 -62 -176l62 -266zM387 -164l-79 -10v651l57 1l2 -17q84 45 125 -6.5t41 -197.5q0 -133 -41.5 -195t-104.5 -59v-167z" glyph-name="R_p"/><glyph d="M60 269v72h430v-72h-430z" glyph-name="fraction.afrc"/><glyph d="M268 415q-80 0 -124.5 53.5t-44.5 146.5q0 95 50 154.5t132 59.5q80 0 124 -53t44 -147q0 -95 -49.5 -154.5t-131.5 -59.5zM273 758q-85 0 -85 -130q0 -67 22.5 -104t66.5 -37q84 0 84 130q0 67 -22.5 104t-65.5 37z" glyph-name="zero.num"/><glyph d="M436 425h-306v73h119v196l-111 -3l-2 65l113 13v59l86 7v-337h108z" glyph-name="one.num"/><glyph d="M431 425h-305l-9 69q114 70 163.5 112t49.5 79q0 32 -43 47.5t-155 19.5l6 77q281 1 281 -120q0 -51 -44.5 -99.5t-138.5 -109.5h195v-75z" glyph-name="two.num"/><glyph d="M136 414l-6 78q216 5 216 48q0 41 -177 58v44l148 102v3l-180 -2v75h277l7 -69l-154 -106q164 -26 164 -104q0 -55 -71 -89.5t-224 -37.5z" glyph-name="three.num"/><glyph d="M448 499l-47 1l1 -75h-83l1 75l-198 -1q-7 140 45 327l95 -6q-65 -242 -66 -249l125 -1l-2 121l83 7l-2 -128l54 1z" glyph-name="four.num"/><glyph d="M429 555q0 -58 -73.5 -95.5t-219.5 -45.5l-5 79q118 7 167 21t49 39q0 45 -206 59l15 208h262l-8 -75h-182l-6 -73q207 -21 207 -117z" glyph-name="five.num"/><glyph d="M274 415q-74 0 -118 42.5t-44 121.5q0 178 246 257l29 -72q-94 -30 -135.5 -60t-51.5 -75q48 36 104 39.5t95 -27t39 -86.5q0 -61 -48 -100.5t-116 -39.5zM282 485q32 0 52.5 17t20.5 47q0 46 -48.5 58t-110.5 -20q0 -50 23.5 -76t62.5 -26z" glyph-name="six.num"/><glyph d="M260 418l-91 9q66 157 179 312l-2 5h-222l7 76h307v-74q-116 -170 -178 -328z" glyph-name="seven.num"/><glyph d="M267 415q-70 0 -111.5 28t-41.5 74q0 67 92 103q-85 46 -85 100q0 43 43 76t116 33q64 0 106.5 -27.5t42.5 -71.5q0 -62 -87 -100q45 -23 69.5 -46.5t24.5 -54.5q0 -47 -46 -80.5t-123 -33.5zM209 725q0 -20 20.5 -35.5t62.5 -35.5q53 26 53 62q0 22 -18.5 36t-51.5 14 q-30 0 -48 -12t-18 -29zM274 479q33 0 53 13t20 32q0 10 -6.5 19t-22.5 19t-26.5 15.5t-35.5 17.5q-56 -24 -56 -63q0 -23 19.5 -38t54.5 -15z" glyph-name="eight.num"/><glyph d="M191 407l-29 73q95 31 136 60.5t51 73.5q-48 -36 -104 -39.5t-95 27.5t-39 87q0 61 48 100t116 39q74 0 118.5 -42.5t44.5 -120.5q0 -87 -62 -153t-185 -105zM194 694q0 -46 48.5 -58t110.5 20q1 51 -23 77t-63 26q-32 0 -52.5 -17.5t-20.5 -47.5z" glyph-name="nine.num"/><glyph d="M268 -220q-80 0 -124.5 53.5t-44.5 146.5q0 95 50 154.5t132 59.5q80 0 124 -53t44 -147q0 -95 -49.5 -154.5t-131.5 -59.5zM273 123q-85 0 -85 -130q0 -67 22.5 -104t66.5 -37q84 0 84 130q0 67 -22.5 104t-65.5 37z" glyph-name="zero.den"/><glyph d="M436 -210h-306v73h119v196l-111 -3l-2 65l113 13v59l86 7v-337h108z" glyph-name="one.den"/><glyph d="M431 -210h-305l-9 69q114 70 163.5 112t49.5 79q0 32 -43 47.5t-155 19.5l6 77q281 1 281 -120q0 -51 -44.5 -99.5t-138.5 -109.5h195v-75z" glyph-name="two.den"/><glyph d="M136 -221l-6 78q216 5 216 48q0 41 -177 58v44l148 102v3l-180 -2v75h277l7 -69l-154 -106q164 -26 164 -104q0 -55 -71 -89.5t-224 -37.5z" glyph-name="three.den"/><glyph d="M448 -136l-47 1l1 -75h-83l1 75l-198 -1q-7 140 45 327l95 -6q-65 -242 -66 -249l125 -1l-2 121l83 7l-2 -128l54 1z" glyph-name="four.den"/><glyph d="M429 -80q0 -58 -73.5 -95.5t-219.5 -45.5l-5 79q118 7 167 21t49 39q0 45 -206 59l15 208h262l-8 -75h-182l-6 -73q207 -21 207 -117z" glyph-name="five.den"/><glyph d="M274 -220q-74 0 -118 42.5t-44 121.5q0 178 246 257l29 -72q-94 -30 -135.5 -60t-51.5 -75q48 36 104 39.5t95 -27t39 -86.5q0 -61 -48 -100.5t-116 -39.5zM282 -150q32 0 52.5 17t20.5 47q0 46 -48.5 58t-110.5 -20q0 -50 23.5 -76t62.5 -26z" glyph-name="six.den"/><glyph d="M260 -217l-91 9q66 157 179 312l-2 5h-222l7 76h307v-74q-116 -170 -178 -328z" glyph-name="seven.den"/><glyph d="M267 -220q-70 0 -111.5 28t-41.5 74q0 67 92 103q-85 46 -85 100q0 43 43 76t116 33q64 0 106.5 -27.5t42.5 -71.5q0 -62 -87 -100q45 -23 69.5 -46.5t24.5 -54.5q0 -47 -46 -80.5t-123 -33.5zM209 90q0 -20 20.5 -35.5t62.5 -35.5q53 27 53 62q0 22 -18.5 36t-51.5 14 q-30 0 -48 -12t-18 -29zM274 -156q33 0 53 13t20 32q0 10 -6.5 19t-22.5 19t-26.5 15.5t-35.5 17.5q-56 -24 -56 -63q0 -23 19.5 -38t54.5 -15z" glyph-name="eight.den"/><glyph d="M191 -228l-29 73q95 31 136 60.5t51 73.5q-48 -36 -104 -39.5t-95 27.5t-39 87q0 61 48 100t116 39q74 0 118.5 -42.5t44.5 -120.5q0 -87 -62 -153t-185 -105zM194 59q0 -46 48.5 -58t110.5 20q1 51 -23 77t-63 26q-32 0 -52.5 -17.5t-20.5 -47.5z" glyph-name="nine.den"/><glyph d="M268 -10q-80 0 -124.5 53.5t-44.5 146.5q0 95 50 154.5t132 59.5q80 0 124 -53t44 -147q0 -95 -49.5 -154.5t-131.5 -59.5zM273 333q-85 0 -85 -130q0 -67 22.5 -104t66.5 -37q84 0 84 130q0 67 -22.5 104t-65.5 37z" glyph-name="zero.small"/><glyph d="M436 0h-306v73h119v196l-111 -3l-2 65l113 13v59l86 7v-337h108z" glyph-name="one.small"/><glyph d="M431 0h-305l-9 69q114 70 163.5 112t49.5 79q0 32 -43 47.5t-155 19.5l6 77q281 1 281 -120q0 -51 -44.5 -99.5t-138.5 -109.5h195v-75z" glyph-name="two.small"/><glyph d="M136 -11l-6 78q216 5 216 48q0 41 -177 58v44l148 102v3l-180 -2v75h277l7 -69l-154 -106q164 -26 164 -104q0 -55 -71 -89.5t-224 -37.5z" glyph-name="three.small"/><glyph d="M448 74l-47 1l1 -75h-83l1 75l-198 -1q-7 140 45 327l95 -6q-65 -242 -66 -249l125 -1l-2 121l83 7l-2 -128l54 1z" glyph-name="four.small"/><glyph d="M429 130q0 -58 -73.5 -95.5t-219.5 -45.5l-5 79q118 7 167 21t49 39q0 45 -206 59l15 208h262l-8 -75h-182l-6 -73q207 -21 207 -117z" glyph-name="five.small"/><glyph d="M274 -10q-74 0 -118 42.5t-44 121.5q0 178 246 257l29 -72q-94 -30 -135.5 -60t-51.5 -75q48 36 104 39.5t95 -27t39 -86.5q0 -61 -48 -100.5t-116 -39.5zM282 60q32 0 52.5 17t20.5 47q0 46 -48.5 58t-110.5 -20q0 -50 23.5 -76t62.5 -26z" glyph-name="six.small"/><glyph d="M260 -7l-91 9q66 157 179 312l-2 5h-222l7 76h307v-74q-116 -170 -178 -328z" glyph-name="seven.small"/><glyph d="M267 -10q-70 0 -111.5 28t-41.5 74q0 67 92 103q-85 46 -85 100q0 43 43 76t116 33q64 0 106.5 -27.5t42.5 -71.5q0 -62 -87 -100q45 -23 69.5 -46.5t24.5 -54.5q0 -47 -46 -80.5t-123 -33.5zM209 300q0 -20 20.5 -35.5t62.5 -35.5q53 27 53 62q0 22 -18.5 36t-51.5 14 q-30 0 -48 -12t-18 -29zM274 54q33 0 53 13t20 32q0 10 -6.5 19t-22.5 19t-26.5 15.5t-35.5 17.5q-56 -24 -56 -63q0 -23 19.5 -38t54.5 -15z" glyph-name="eight.small"/><glyph d="M191 -18l-29 73q95 31 136 60.5t51 73.5q-48 -36 -104 -39.5t-95 27.5t-39 87q0 61 48 100t116 39q74 0 118.5 -42.5t44.5 -120.5q0 -87 -62 -153t-185 -105zM194 269q0 -46 48.5 -58t110.5 20q1 51 -23 77t-63 26q-32 0 -52.5 -17.5t-20.5 -47.5z" glyph-name="nine.small"/><glyph d="M195 566q31 109 6 239l119 1q7 -132 -76 -255z" glyph-name="caron.alt"/><glyph d="M345 769q-36 -94 -4 -195l-132 -6q-3 59 17.5 118t62.5 101z" glyph-name="commaaccent.rot"/><glyph d="M560 -50v-90h-570v90h570z" glyph-name="underscore.alt"/></font>
</defs>
</svg>
